<?xml version="1.0" encoding="utf-8" standalone="no" ?>
<!DOCTYPE svg PUBLIC "-//W3C//DTD SVG 1.1//EN"
"http://www.w3.org/Graphics/SVG/1.1/DTD/svg11.dtd">

<svg xmlns="http://www.w3.org/2000/svg" width="100%" viewBox="0 0 816 258" version="1.1">

    <style type="text/css" >
      <![CDATA[

text {
   color:#222;
   background:#fff;
   font-family:"Helvetica Neue", Arial, Helvetica, sans-serif;
}
.sequence {
   stroke: black;
   stroke-width: 0.2em;
}

.gap {
   stroke: black;
   stroke-width: 0.05em;
}
.mot1 {
   stroke:  #E57272;
}
.mot2 {
   stroke: #99995B;
}
.mot3 {
   stroke: #E5E55B;
}
.mot4 {
   stroke: #5B6B99;
}
.mot5 {
   stroke: #5B7EE5;
}
.conserved {
   stroke-width: 0.3em;
}
.notconserved {
   stroke-width: 0.1em;
}
.score {
   font-size: 0.7em;
}

      ]]>
    </style>

<g font-size="12">
<text class="species" x="0.2em" y="1.9em">DroMel</text>
<line class="gap" x1="6em" y1="1.5em" x2="41.46em" y2="1.5em"/>
<line class="sequence" x1="6em" y1="1.5em" x2="7.8em" y2="1.5em"/>
<line class="sequence" x1="7.86em" y1="1.5em" x2="8.49em" y2="1.5em"/>
<line class="sequence" x1="8.61em" y1="1.5em" x2="10.53em" y2="1.5em"/>
<line class="sequence" x1="10.62em" y1="1.5em" x2="10.83em" y2="1.5em"/>
<line class="sequence" x1="26.82em" y1="1.5em" x2="27.12em" y2="1.5em"/>
<line class="sequence" x1="31.35em" y1="1.5em" x2="31.86em" y2="1.5em"/>
<line class="sequence" x1="33.3em" y1="1.5em" x2="34.08em" y2="1.5em"/>
<line class="sequence" x1="35.58em" y1="1.5em" x2="35.73em" y2="1.5em"/>
<line class="sequence" x1="38.58em" y1="1.5em" x2="38.61em" y2="1.5em"/>
<line class="sequence" x1="38.82em" y1="1.5em" x2="39.18em" y2="1.5em"/>
<line class="sequence" x1="39.27em" y1="1.5em" x2="39.69em" y2="1.5em"/>
<line class="sequence" x1="41.34em" y1="1.5em" x2="41.43em" y2="1.5em"/>
<text class="species" x="0.2em" y="3.4em">DroSim</text>
<line class="gap" x1="6em" y1="3em" x2="41.46em" y2="3em"/>
<line class="sequence" x1="6em" y1="3em" x2="7.47em" y2="3em"/>
<line class="sequence" x1="7.56em" y1="3em" x2="8.04em" y2="3em"/>
<line class="sequence" x1="8.37em" y1="3em" x2="8.49em" y2="3em"/>
<line class="sequence" x1="8.61em" y1="3em" x2="10.53em" y2="3em"/>
<line class="sequence" x1="10.62em" y1="3em" x2="10.83em" y2="3em"/>
<line class="sequence" x1="26.82em" y1="3em" x2="26.85em" y2="3em"/>
<line class="sequence" x1="26.88em" y1="3em" x2="27.12em" y2="3em"/>
<line class="sequence" x1="31.35em" y1="3em" x2="31.86em" y2="3em"/>
<line class="sequence" x1="33.3em" y1="3em" x2="34.08em" y2="3em"/>
<line class="sequence" x1="35.58em" y1="3em" x2="35.73em" y2="3em"/>
<line class="sequence" x1="38.58em" y1="3em" x2="38.61em" y2="3em"/>
<line class="sequence" x1="38.82em" y1="3em" x2="39.18em" y2="3em"/>
<line class="sequence" x1="39.27em" y1="3em" x2="39.69em" y2="3em"/>
<line class="sequence" x1="41.34em" y1="3em" x2="41.43em" y2="3em"/>
<text class="species" x="0.2em" y="4.9em">DroSec</text>
<line class="gap" x1="6em" y1="4.5em" x2="41.46em" y2="4.5em"/>
<line class="sequence" x1="6em" y1="4.5em" x2="7.47em" y2="4.5em"/>
<line class="sequence" x1="7.56em" y1="4.5em" x2="7.71em" y2="4.5em"/>
<line class="sequence" x1="7.77em" y1="4.5em" x2="8.04em" y2="4.5em"/>
<line class="sequence" x1="8.37em" y1="4.5em" x2="8.49em" y2="4.5em"/>
<line class="sequence" x1="8.61em" y1="4.5em" x2="10.53em" y2="4.5em"/>
<line class="sequence" x1="10.62em" y1="4.5em" x2="10.83em" y2="4.5em"/>
<line class="sequence" x1="26.82em" y1="4.5em" x2="26.85em" y2="4.5em"/>
<line class="sequence" x1="26.94em" y1="4.5em" x2="27.12em" y2="4.5em"/>
<line class="sequence" x1="31.35em" y1="4.5em" x2="31.86em" y2="4.5em"/>
<line class="sequence" x1="33.3em" y1="4.5em" x2="33.48em" y2="4.5em"/>
<line class="sequence" x1="33.51em" y1="4.5em" x2="34.08em" y2="4.5em"/>
<line class="sequence" x1="35.58em" y1="4.5em" x2="35.73em" y2="4.5em"/>
<line class="sequence" x1="38.58em" y1="4.5em" x2="38.61em" y2="4.5em"/>
<line class="sequence" x1="38.82em" y1="4.5em" x2="39.18em" y2="4.5em"/>
<line class="sequence" x1="39.27em" y1="4.5em" x2="39.69em" y2="4.5em"/>
<line class="sequence" x1="41.34em" y1="4.5em" x2="41.43em" y2="4.5em"/>
<text class="species" x="0.2em" y="6.4em">DroYak</text>
<line class="gap" x1="6em" y1="6em" x2="41.46em" y2="6em"/>
<line class="sequence" x1="6em" y1="6em" x2="7.68em" y2="6em"/>
<line class="sequence" x1="7.95em" y1="6em" x2="8.25em" y2="6em"/>
<line class="sequence" x1="8.28em" y1="6em" x2="8.49em" y2="6em"/>
<line class="sequence" x1="8.61em" y1="6em" x2="10.53em" y2="6em"/>
<line class="sequence" x1="10.62em" y1="6em" x2="10.8em" y2="6em"/>
<line class="sequence" x1="26.97em" y1="6em" x2="27.12em" y2="6em"/>
<line class="sequence" x1="31.35em" y1="6em" x2="31.5em" y2="6em"/>
<line class="sequence" x1="31.74em" y1="6em" x2="31.86em" y2="6em"/>
<line class="sequence" x1="33.3em" y1="6em" x2="34.08em" y2="6em"/>
<line class="sequence" x1="35.58em" y1="6em" x2="35.73em" y2="6em"/>
<line class="sequence" x1="38.58em" y1="6em" x2="38.67em" y2="6em"/>
<line class="sequence" x1="38.85em" y1="6em" x2="39.12em" y2="6em"/>
<line class="sequence" x1="39.48em" y1="6em" x2="39.69em" y2="6em"/>
<line class="sequence" x1="41.34em" y1="6em" x2="41.43em" y2="6em"/>
<text class="species" x="0.2em" y="7.9em">DroEre</text>
<line class="gap" x1="6em" y1="7.5em" x2="41.46em" y2="7.5em"/>
<line class="sequence" x1="6em" y1="7.5em" x2="7.68em" y2="7.5em"/>
<line class="sequence" x1="7.95em" y1="7.5em" x2="8.25em" y2="7.5em"/>
<line class="sequence" x1="8.28em" y1="7.5em" x2="8.49em" y2="7.5em"/>
<line class="sequence" x1="8.61em" y1="7.5em" x2="10.53em" y2="7.5em"/>
<line class="sequence" x1="10.62em" y1="7.5em" x2="10.83em" y2="7.5em"/>
<line class="sequence" x1="26.91em" y1="7.5em" x2="27.12em" y2="7.5em"/>
<line class="sequence" x1="31.35em" y1="7.5em" x2="31.5em" y2="7.5em"/>
<line class="sequence" x1="31.74em" y1="7.5em" x2="31.86em" y2="7.5em"/>
<line class="sequence" x1="33.3em" y1="7.5em" x2="34.08em" y2="7.5em"/>
<line class="sequence" x1="35.58em" y1="7.5em" x2="35.61em" y2="7.5em"/>
<line class="sequence" x1="38.58em" y1="7.5em" x2="39.12em" y2="7.5em"/>
<line class="sequence" x1="39.48em" y1="7.5em" x2="39.69em" y2="7.5em"/>
<line class="sequence" x1="41.34em" y1="7.5em" x2="41.43em" y2="7.5em"/>
<text class="species" x="0.2em" y="9.4em">DroAna</text>
<line class="gap" x1="6em" y1="9em" x2="41.46em" y2="9em"/>
<line class="sequence" x1="6em" y1="9em" x2="6.33em" y2="9em"/>
<line class="sequence" x1="6.36em" y1="9em" x2="7.17em" y2="9em"/>
<line class="sequence" x1="8.07em" y1="9em" x2="9.51em" y2="9em"/>
<line class="sequence" x1="9.57em" y1="9em" x2="10.26em" y2="9em"/>
<line class="sequence" x1="31.5em" y1="9em" x2="31.86em" y2="9em"/>
<line class="sequence" x1="33.87em" y1="9em" x2="34.08em" y2="9em"/>
<line class="sequence" x1="38.67em" y1="9em" x2="39.15em" y2="9em"/>
<text class="species" x="0.2em" y="10.9em">DroPse</text>
<line class="gap" x1="6em" y1="10.5em" x2="41.46em" y2="10.5em"/>
<line class="sequence" x1="7.08em" y1="10.5em" x2="7.29em" y2="10.5em"/>
<line class="sequence" x1="8.67em" y1="10.5em" x2="8.97em" y2="10.5em"/>
<line class="sequence" x1="10.44em" y1="10.5em" x2="10.53em" y2="10.5em"/>
<line class="sequence" x1="10.62em" y1="10.5em" x2="10.83em" y2="10.5em"/>
<line class="sequence" x1="26.82em" y1="10.5em" x2="26.85em" y2="10.5em"/>
<line class="sequence" x1="27.06em" y1="10.5em" x2="27.12em" y2="10.5em"/>
<line class="sequence" x1="31.35em" y1="10.5em" x2="31.65em" y2="10.5em"/>
<line class="sequence" x1="33.36em" y1="10.5em" x2="33.45em" y2="10.5em"/>
<line class="sequence" x1="33.57em" y1="10.5em" x2="34.08em" y2="10.5em"/>
<line class="sequence" x1="35.58em" y1="10.5em" x2="35.73em" y2="10.5em"/>
<line class="sequence" x1="38.58em" y1="10.5em" x2="39.18em" y2="10.5em"/>
<line class="sequence" x1="39.27em" y1="10.5em" x2="39.36em" y2="10.5em"/>
<text class="species" x="0.2em" y="12.4em">DroPer</text>
<line class="gap" x1="6em" y1="12em" x2="41.46em" y2="12em"/>
<line class="sequence" x1="7.08em" y1="12em" x2="7.29em" y2="12em"/>
<line class="sequence" x1="8.67em" y1="12em" x2="8.97em" y2="12em"/>
<line class="sequence" x1="10.44em" y1="12em" x2="10.53em" y2="12em"/>
<line class="sequence" x1="10.62em" y1="12em" x2="10.83em" y2="12em"/>
<line class="sequence" x1="26.82em" y1="12em" x2="26.85em" y2="12em"/>
<line class="sequence" x1="27.06em" y1="12em" x2="27.12em" y2="12em"/>
<line class="sequence" x1="31.35em" y1="12em" x2="31.65em" y2="12em"/>
<line class="sequence" x1="33.36em" y1="12em" x2="34.08em" y2="12em"/>
<line class="sequence" x1="35.58em" y1="12em" x2="35.73em" y2="12em"/>
<line class="sequence" x1="38.58em" y1="12em" x2="39.18em" y2="12em"/>
<line class="sequence" x1="39.27em" y1="12em" x2="39.36em" y2="12em"/>
<text class="species" x="0.2em" y="13.9em">DroWil</text>
<line class="gap" x1="6em" y1="13.5em" x2="41.46em" y2="13.5em"/>
<line class="sequence" x1="6.36em" y1="13.5em" x2="6.81em" y2="13.5em"/>
<line class="sequence" x1="7.29em" y1="13.5em" x2="7.38em" y2="13.5em"/>
<line class="sequence" x1="7.59em" y1="13.5em" x2="7.98em" y2="13.5em"/>
<line class="sequence" x1="8.37em" y1="13.5em" x2="8.67em" y2="13.5em"/>
<line class="sequence" x1="9.15em" y1="13.5em" x2="9.72em" y2="13.5em"/>
<line class="sequence" x1="10.44em" y1="13.5em" x2="10.53em" y2="13.5em"/>
<line class="sequence" x1="10.62em" y1="13.5em" x2="24.6em" y2="13.5em"/>
<line class="sequence" x1="25.86em" y1="13.5em" x2="33.54em" y2="13.5em"/>
<line class="sequence" x1="33.57em" y1="13.5em" x2="41.43em" y2="13.5em"/>
<text class="species" x="0.2em" y="15.4em">DroVir</text>
<line class="gap" x1="6em" y1="15em" x2="41.46em" y2="15em"/>
<line class="sequence" x1="6em" y1="15em" x2="6.12em" y2="15em"/>
<line class="sequence" x1="7.23em" y1="15em" x2="7.77em" y2="15em"/>
<line class="sequence" x1="10.2em" y1="15em" x2="11.01em" y2="15em"/>
<line class="sequence" x1="11.34em" y1="15em" x2="11.55em" y2="15em"/>
<line class="sequence" x1="11.82em" y1="15em" x2="12.03em" y2="15em"/>
<line class="sequence" x1="12.18em" y1="15em" x2="12.6em" y2="15em"/>
<line class="sequence" x1="12.75em" y1="15em" x2="13.41em" y2="15em"/>
<line class="sequence" x1="13.59em" y1="15em" x2="13.89em" y2="15em"/>
<line class="sequence" x1="13.95em" y1="15em" x2="14.1em" y2="15em"/>
<line class="sequence" x1="18.57em" y1="15em" x2="18.66em" y2="15em"/>
<line class="sequence" x1="19.38em" y1="15em" x2="19.56em" y2="15em"/>
<line class="sequence" x1="24.21em" y1="15em" x2="26.34em" y2="15em"/>
<line class="sequence" x1="32.04em" y1="15em" x2="32.07em" y2="15em"/>
<line class="sequence" x1="32.19em" y1="15em" x2="32.22em" y2="15em"/>
<line class="sequence" x1="38.61em" y1="15em" x2="38.79em" y2="15em"/>
<line class="sequence" x1="40.71em" y1="15em" x2="40.77em" y2="15em"/>
<line class="sequence" x1="40.86em" y1="15em" x2="40.98em" y2="15em"/>
<text class="species" x="0.2em" y="16.9em">DroMoj</text>
<line class="gap" x1="6em" y1="16.5em" x2="41.46em" y2="16.5em"/>
<line class="sequence" x1="6em" y1="16.5em" x2="6.12em" y2="16.5em"/>
<line class="sequence" x1="7.23em" y1="16.5em" x2="7.26em" y2="16.5em"/>
<line class="sequence" x1="7.5em" y1="16.5em" x2="7.8em" y2="16.5em"/>
<line class="sequence" x1="8.04em" y1="16.5em" x2="8.13em" y2="16.5em"/>
<line class="sequence" x1="8.22em" y1="16.5em" x2="8.25em" y2="16.5em"/>
<line class="sequence" x1="8.58em" y1="16.5em" x2="9.09em" y2="16.5em"/>
<line class="sequence" x1="10.17em" y1="16.5em" x2="11.01em" y2="16.5em"/>
<line class="sequence" x1="11.34em" y1="16.5em" x2="11.55em" y2="16.5em"/>
<line class="sequence" x1="11.82em" y1="16.5em" x2="12.03em" y2="16.5em"/>
<line class="sequence" x1="12.18em" y1="16.5em" x2="12.6em" y2="16.5em"/>
<line class="sequence" x1="12.75em" y1="16.5em" x2="12.81em" y2="16.5em"/>
<line class="sequence" x1="12.99em" y1="16.5em" x2="13.41em" y2="16.5em"/>
<line class="sequence" x1="13.59em" y1="16.5em" x2="14.1em" y2="16.5em"/>
<line class="sequence" x1="18.57em" y1="16.5em" x2="18.66em" y2="16.5em"/>
<line class="sequence" x1="19.38em" y1="16.5em" x2="19.56em" y2="16.5em"/>
<line class="sequence" x1="24.21em" y1="16.5em" x2="24.81em" y2="16.5em"/>
<line class="sequence" x1="25.32em" y1="16.5em" x2="25.59em" y2="16.5em"/>
<line class="sequence" x1="25.98em" y1="16.5em" x2="26.34em" y2="16.5em"/>
<line class="sequence" x1="32.04em" y1="16.5em" x2="32.07em" y2="16.5em"/>
<line class="sequence" x1="32.19em" y1="16.5em" x2="32.22em" y2="16.5em"/>
<line class="sequence" x1="38.58em" y1="16.5em" x2="38.79em" y2="16.5em"/>
<line class="sequence" x1="40.71em" y1="16.5em" x2="40.98em" y2="16.5em"/>
<text class="species" x="0.2em" y="18.4em">DroGri</text>
<line class="gap" x1="6em" y1="18em" x2="41.46em" y2="18em"/>
<line class="sequence" x1="6em" y1="18em" x2="6.12em" y2="18em"/>
<line class="sequence" x1="7.23em" y1="18em" x2="7.8em" y2="18em"/>
<line class="sequence" x1="8.04em" y1="18em" x2="8.25em" y2="18em"/>
<line class="sequence" x1="8.58em" y1="18em" x2="8.82em" y2="18em"/>
<line class="sequence" x1="11.88em" y1="18em" x2="12.03em" y2="18em"/>
<line class="sequence" x1="12.18em" y1="18em" x2="12.6em" y2="18em"/>
<line class="sequence" x1="12.75em" y1="18em" x2="13.41em" y2="18em"/>
<line class="sequence" x1="13.59em" y1="18em" x2="14.22em" y2="18em"/>
<line class="sequence" x1="17.49em" y1="18em" x2="17.58em" y2="18em"/>
<line class="sequence" x1="18.27em" y1="18em" x2="18.66em" y2="18em"/>
<line class="sequence" x1="19.38em" y1="18em" x2="19.56em" y2="18em"/>
<line class="sequence" x1="24.21em" y1="18em" x2="25.05em" y2="18em"/>
<line class="sequence" x1="25.38em" y1="18em" x2="25.71em" y2="18em"/>
<line class="sequence" x1="26.04em" y1="18em" x2="26.34em" y2="18em"/>
<line class="sequence" x1="32.04em" y1="18em" x2="32.22em" y2="18em"/>
<line class="sequence" x1="38.58em" y1="18em" x2="38.79em" y2="18em"/>
<line class="sequence" x1="40.71em" y1="18em" x2="40.98em" y2="18em"/>
<line class="conserved mot3" x1="8.07em" y1="17.5em" x2="8.07em" y2="18.5em"/>
<text x="8.27em" y="18.8em"><tspan class="score">11.7</tspan></text>
</g>
</svg>
