<?xml version="1.0" encoding="utf-8" standalone="no" ?>
<!DOCTYPE svg PUBLIC "-//W3C//DTD SVG 1.1//EN"
"http://www.w3.org/Graphics/SVG/1.1/DTD/svg11.dtd">

<svg xmlns="http://www.w3.org/2000/svg" width="100%" viewBox="0 0 816 258" version="1.1">

    <style type="text/css" >
      <![CDATA[

text {
   color:#222;
   background:#fff;
   font-family:"Helvetica Neue", Arial, Helvetica, sans-serif;
}
.sequence {
   stroke: black;
   stroke-width: 0.2em;
}

.gap {
   stroke: black;
   stroke-width: 0.05em;
}
.mot1 {
   stroke:  #E57272;
}
.mot2 {
   stroke: #99995B;
}
.mot3 {
   stroke: #E5E55B;
}
.mot4 {
   stroke: #5B6B99;
}
.mot5 {
   stroke: #5B7EE5;
}
.conserved {
   stroke-width: 0.3em;
}
.notconserved {
   stroke-width: 0.1em;
}
.score {
   font-size: 0.7em;
}

      ]]>
    </style>

<g font-size="12">
<text class="species" x="0.2em" y="1.9em">DroMel</text>
<line class="gap" x1="6em" y1="1.5em" x2="22.71em" y2="1.5em"/>
<line class="sequence" x1="6em" y1="1.5em" x2="6.03em" y2="1.5em"/>
<line class="sequence" x1="7.47em" y1="1.5em" x2="8.22em" y2="1.5em"/>
<line class="sequence" x1="8.28em" y1="1.5em" x2="8.55em" y2="1.5em"/>
<line class="sequence" x1="9.21em" y1="1.5em" x2="9.9em" y2="1.5em"/>
<line class="sequence" x1="10.11em" y1="1.5em" x2="11.04em" y2="1.5em"/>
<line class="sequence" x1="11.07em" y1="1.5em" x2="11.4em" y2="1.5em"/>
<line class="sequence" x1="11.52em" y1="1.5em" x2="12.36em" y2="1.5em"/>
<line class="sequence" x1="12.54em" y1="1.5em" x2="12.9em" y2="1.5em"/>
<line class="sequence" x1="13.11em" y1="1.5em" x2="13.17em" y2="1.5em"/>
<line class="sequence" x1="13.26em" y1="1.5em" x2="13.32em" y2="1.5em"/>
<line class="sequence" x1="13.38em" y1="1.5em" x2="13.83em" y2="1.5em"/>
<line class="sequence" x1="13.89em" y1="1.5em" x2="14.46em" y2="1.5em"/>
<line class="sequence" x1="14.58em" y1="1.5em" x2="15em" y2="1.5em"/>
<line class="sequence" x1="15.3em" y1="1.5em" x2="15.51em" y2="1.5em"/>
<line class="sequence" x1="15.57em" y1="1.5em" x2="17.37em" y2="1.5em"/>
<line class="sequence" x1="17.46em" y1="1.5em" x2="18.42em" y2="1.5em"/>
<line class="sequence" x1="18.48em" y1="1.5em" x2="18.75em" y2="1.5em"/>
<line class="sequence" x1="18.78em" y1="1.5em" x2="19.68em" y2="1.5em"/>
<line class="sequence" x1="19.74em" y1="1.5em" x2="19.89em" y2="1.5em"/>
<line class="sequence" x1="20.46em" y1="1.5em" x2="20.76em" y2="1.5em"/>
<line class="sequence" x1="20.97em" y1="1.5em" x2="21.87em" y2="1.5em"/>
<line class="sequence" x1="21.96em" y1="1.5em" x2="22.68em" y2="1.5em"/>
<text class="species" x="0.2em" y="3.4em">DroSim</text>
<line class="gap" x1="6em" y1="3em" x2="22.71em" y2="3em"/>
<line class="sequence" x1="6em" y1="3em" x2="6.03em" y2="3em"/>
<line class="sequence" x1="7.47em" y1="3em" x2="8.22em" y2="3em"/>
<line class="sequence" x1="9.69em" y1="3em" x2="11.04em" y2="3em"/>
<line class="sequence" x1="11.07em" y1="3em" x2="11.4em" y2="3em"/>
<line class="sequence" x1="11.52em" y1="3em" x2="11.76em" y2="3em"/>
<line class="sequence" x1="11.85em" y1="3em" x2="12.36em" y2="3em"/>
<line class="sequence" x1="12.54em" y1="3em" x2="12.9em" y2="3em"/>
<line class="sequence" x1="13.11em" y1="3em" x2="13.17em" y2="3em"/>
<line class="sequence" x1="13.26em" y1="3em" x2="13.32em" y2="3em"/>
<line class="sequence" x1="13.38em" y1="3em" x2="13.83em" y2="3em"/>
<line class="sequence" x1="13.89em" y1="3em" x2="14.46em" y2="3em"/>
<line class="sequence" x1="14.58em" y1="3em" x2="15em" y2="3em"/>
<line class="sequence" x1="15.3em" y1="3em" x2="15.51em" y2="3em"/>
<line class="sequence" x1="15.57em" y1="3em" x2="18.42em" y2="3em"/>
<line class="sequence" x1="18.48em" y1="3em" x2="18.75em" y2="3em"/>
<line class="sequence" x1="18.78em" y1="3em" x2="19.68em" y2="3em"/>
<line class="sequence" x1="19.74em" y1="3em" x2="19.89em" y2="3em"/>
<line class="sequence" x1="20.46em" y1="3em" x2="20.76em" y2="3em"/>
<line class="sequence" x1="20.97em" y1="3em" x2="21.87em" y2="3em"/>
<line class="sequence" x1="21.96em" y1="3em" x2="21.99em" y2="3em"/>
<line class="sequence" x1="22.11em" y1="3em" x2="22.68em" y2="3em"/>
<text class="species" x="0.2em" y="4.9em">DroSec</text>
<line class="gap" x1="6em" y1="4.5em" x2="22.71em" y2="4.5em"/>
<line class="sequence" x1="6em" y1="4.5em" x2="6.03em" y2="4.5em"/>
<line class="sequence" x1="7.47em" y1="4.5em" x2="8.46em" y2="4.5em"/>
<line class="sequence" x1="9.36em" y1="4.5em" x2="11.04em" y2="4.5em"/>
<line class="sequence" x1="11.07em" y1="4.5em" x2="11.4em" y2="4.5em"/>
<line class="sequence" x1="11.52em" y1="4.5em" x2="11.76em" y2="4.5em"/>
<line class="sequence" x1="11.85em" y1="4.5em" x2="12.36em" y2="4.5em"/>
<line class="sequence" x1="12.54em" y1="4.5em" x2="12.9em" y2="4.5em"/>
<line class="sequence" x1="13.11em" y1="4.5em" x2="13.17em" y2="4.5em"/>
<line class="sequence" x1="13.26em" y1="4.5em" x2="13.32em" y2="4.5em"/>
<line class="sequence" x1="13.38em" y1="4.5em" x2="13.83em" y2="4.5em"/>
<line class="sequence" x1="13.89em" y1="4.5em" x2="14.46em" y2="4.5em"/>
<line class="sequence" x1="14.58em" y1="4.5em" x2="15em" y2="4.5em"/>
<line class="sequence" x1="15.3em" y1="4.5em" x2="15.51em" y2="4.5em"/>
<line class="sequence" x1="15.57em" y1="4.5em" x2="17.34em" y2="4.5em"/>
<line class="sequence" x1="17.43em" y1="4.5em" x2="18.42em" y2="4.5em"/>
<line class="sequence" x1="18.48em" y1="4.5em" x2="18.75em" y2="4.5em"/>
<line class="sequence" x1="18.78em" y1="4.5em" x2="19.68em" y2="4.5em"/>
<line class="sequence" x1="19.74em" y1="4.5em" x2="19.89em" y2="4.5em"/>
<line class="sequence" x1="20.46em" y1="4.5em" x2="20.76em" y2="4.5em"/>
<line class="sequence" x1="20.97em" y1="4.5em" x2="21.69em" y2="4.5em"/>
<line class="sequence" x1="21.72em" y1="4.5em" x2="21.87em" y2="4.5em"/>
<line class="sequence" x1="21.96em" y1="4.5em" x2="21.99em" y2="4.5em"/>
<line class="sequence" x1="22.11em" y1="4.5em" x2="22.68em" y2="4.5em"/>
<text class="species" x="0.2em" y="6.4em">DroYak</text>
<line class="gap" x1="6em" y1="6em" x2="22.71em" y2="6em"/>
<line class="sequence" x1="6em" y1="6em" x2="9.03em" y2="6em"/>
<line class="sequence" x1="10.11em" y1="6em" x2="11.4em" y2="6em"/>
<line class="sequence" x1="11.52em" y1="6em" x2="11.76em" y2="6em"/>
<line class="sequence" x1="11.85em" y1="6em" x2="12.9em" y2="6em"/>
<line class="sequence" x1="13.11em" y1="6em" x2="13.17em" y2="6em"/>
<line class="sequence" x1="13.26em" y1="6em" x2="13.32em" y2="6em"/>
<line class="sequence" x1="13.38em" y1="6em" x2="13.83em" y2="6em"/>
<line class="sequence" x1="13.89em" y1="6em" x2="14.46em" y2="6em"/>
<line class="sequence" x1="14.58em" y1="6em" x2="15em" y2="6em"/>
<line class="sequence" x1="15.3em" y1="6em" x2="15.51em" y2="6em"/>
<line class="sequence" x1="15.57em" y1="6em" x2="17.19em" y2="6em"/>
<line class="sequence" x1="17.55em" y1="6em" x2="18.42em" y2="6em"/>
<line class="sequence" x1="18.48em" y1="6em" x2="18.75em" y2="6em"/>
<line class="sequence" x1="18.78em" y1="6em" x2="19.68em" y2="6em"/>
<line class="sequence" x1="19.74em" y1="6em" x2="19.89em" y2="6em"/>
<line class="sequence" x1="20.46em" y1="6em" x2="20.61em" y2="6em"/>
<line class="sequence" x1="20.64em" y1="6em" x2="20.76em" y2="6em"/>
<line class="sequence" x1="21.3em" y1="6em" x2="21.87em" y2="6em"/>
<line class="sequence" x1="21.96em" y1="6em" x2="22.68em" y2="6em"/>
<text class="species" x="0.2em" y="7.9em">DroEre</text>
<line class="gap" x1="6em" y1="7.5em" x2="22.71em" y2="7.5em"/>
<line class="sequence" x1="6em" y1="7.5em" x2="6.3em" y2="7.5em"/>
<line class="sequence" x1="6.75em" y1="7.5em" x2="6.96em" y2="7.5em"/>
<line class="sequence" x1="7.47em" y1="7.5em" x2="9.75em" y2="7.5em"/>
<line class="sequence" x1="9.93em" y1="7.5em" x2="11.01em" y2="7.5em"/>
<line class="sequence" x1="11.04em" y1="7.5em" x2="11.4em" y2="7.5em"/>
<line class="sequence" x1="11.52em" y1="7.5em" x2="11.76em" y2="7.5em"/>
<line class="sequence" x1="11.85em" y1="7.5em" x2="12.9em" y2="7.5em"/>
<line class="sequence" x1="13.11em" y1="7.5em" x2="13.32em" y2="7.5em"/>
<line class="sequence" x1="13.38em" y1="7.5em" x2="13.83em" y2="7.5em"/>
<line class="sequence" x1="13.89em" y1="7.5em" x2="14.46em" y2="7.5em"/>
<line class="sequence" x1="14.58em" y1="7.5em" x2="15em" y2="7.5em"/>
<line class="sequence" x1="15.3em" y1="7.5em" x2="15.51em" y2="7.5em"/>
<line class="sequence" x1="15.57em" y1="7.5em" x2="17.19em" y2="7.5em"/>
<line class="sequence" x1="17.82em" y1="7.5em" x2="18.06em" y2="7.5em"/>
<line class="sequence" x1="18.24em" y1="7.5em" x2="18.42em" y2="7.5em"/>
<line class="sequence" x1="18.48em" y1="7.5em" x2="18.75em" y2="7.5em"/>
<line class="sequence" x1="18.78em" y1="7.5em" x2="19.68em" y2="7.5em"/>
<line class="sequence" x1="19.74em" y1="7.5em" x2="19.89em" y2="7.5em"/>
<line class="sequence" x1="20.46em" y1="7.5em" x2="20.61em" y2="7.5em"/>
<line class="sequence" x1="20.64em" y1="7.5em" x2="20.76em" y2="7.5em"/>
<line class="sequence" x1="20.97em" y1="7.5em" x2="21.87em" y2="7.5em"/>
<line class="sequence" x1="21.99em" y1="7.5em" x2="22.68em" y2="7.5em"/>
<text class="species" x="0.2em" y="9.4em">DroAna</text>
<line class="gap" x1="6em" y1="9em" x2="22.71em" y2="9em"/>
<line class="sequence" x1="6.42em" y1="9em" x2="6.63em" y2="9em"/>
<line class="sequence" x1="7.11em" y1="9em" x2="7.59em" y2="9em"/>
<line class="sequence" x1="8.52em" y1="9em" x2="9.24em" y2="9em"/>
<line class="sequence" x1="10.05em" y1="9em" x2="10.26em" y2="9em"/>
<line class="sequence" x1="12.51em" y1="9em" x2="12.66em" y2="9em"/>
<line class="sequence" x1="13.47em" y1="9em" x2="13.83em" y2="9em"/>
<line class="sequence" x1="13.89em" y1="9em" x2="14.46em" y2="9em"/>
<line class="sequence" x1="14.52em" y1="9em" x2="14.79em" y2="9em"/>
<line class="sequence" x1="14.91em" y1="9em" x2="15em" y2="9em"/>
<line class="sequence" x1="15.3em" y1="9em" x2="15.51em" y2="9em"/>
<line class="sequence" x1="15.57em" y1="9em" x2="16.95em" y2="9em"/>
<line class="sequence" x1="17.22em" y1="9em" x2="17.73em" y2="9em"/>
<line class="sequence" x1="17.79em" y1="9em" x2="17.94em" y2="9em"/>
<line class="sequence" x1="18.12em" y1="9em" x2="18.42em" y2="9em"/>
<line class="sequence" x1="18.48em" y1="9em" x2="18.75em" y2="9em"/>
<line class="sequence" x1="18.78em" y1="9em" x2="20.76em" y2="9em"/>
<line class="sequence" x1="20.97em" y1="9em" x2="21.33em" y2="9em"/>
<line class="sequence" x1="22.2em" y1="9em" x2="22.68em" y2="9em"/>
<text class="species" x="0.2em" y="10.9em">DroPse</text>
<line class="gap" x1="6em" y1="10.5em" x2="22.71em" y2="10.5em"/>
<line class="sequence" x1="8.82em" y1="10.5em" x2="9.24em" y2="10.5em"/>
<line class="sequence" x1="9.27em" y1="10.5em" x2="9.75em" y2="10.5em"/>
<line class="sequence" x1="10.53em" y1="10.5em" x2="10.65em" y2="10.5em"/>
<line class="sequence" x1="11.07em" y1="10.5em" x2="11.79em" y2="10.5em"/>
<line class="sequence" x1="11.82em" y1="10.5em" x2="12.36em" y2="10.5em"/>
<line class="sequence" x1="13.11em" y1="10.5em" x2="13.32em" y2="10.5em"/>
<line class="sequence" x1="13.38em" y1="10.5em" x2="13.83em" y2="10.5em"/>
<line class="sequence" x1="13.89em" y1="10.5em" x2="14.64em" y2="10.5em"/>
<line class="sequence" x1="14.97em" y1="10.5em" x2="15em" y2="10.5em"/>
<line class="sequence" x1="15.3em" y1="10.5em" x2="15.54em" y2="10.5em"/>
<line class="sequence" x1="15.6em" y1="10.5em" x2="16.74em" y2="10.5em"/>
<line class="sequence" x1="16.86em" y1="10.5em" x2="18.09em" y2="10.5em"/>
<line class="sequence" x1="18.24em" y1="10.5em" x2="18.75em" y2="10.5em"/>
<line class="sequence" x1="18.78em" y1="10.5em" x2="19.74em" y2="10.5em"/>
<line class="sequence" x1="20.34em" y1="10.5em" x2="20.76em" y2="10.5em"/>
<line class="sequence" x1="20.97em" y1="10.5em" x2="21.42em" y2="10.5em"/>
<line class="sequence" x1="22.5em" y1="10.5em" x2="22.68em" y2="10.5em"/>
<text class="species" x="0.2em" y="12.4em">DroPer</text>
<line class="gap" x1="6em" y1="12em" x2="22.71em" y2="12em"/>
<line class="sequence" x1="8.79em" y1="12em" x2="9.24em" y2="12em"/>
<line class="sequence" x1="9.27em" y1="12em" x2="9.75em" y2="12em"/>
<line class="sequence" x1="10.53em" y1="12em" x2="10.65em" y2="12em"/>
<line class="sequence" x1="11.07em" y1="12em" x2="11.79em" y2="12em"/>
<line class="sequence" x1="11.82em" y1="12em" x2="12.36em" y2="12em"/>
<line class="sequence" x1="13.11em" y1="12em" x2="13.32em" y2="12em"/>
<line class="sequence" x1="13.38em" y1="12em" x2="13.83em" y2="12em"/>
<line class="sequence" x1="13.89em" y1="12em" x2="14.64em" y2="12em"/>
<line class="sequence" x1="14.97em" y1="12em" x2="15em" y2="12em"/>
<line class="sequence" x1="15.3em" y1="12em" x2="16.74em" y2="12em"/>
<line class="sequence" x1="16.86em" y1="12em" x2="18.09em" y2="12em"/>
<line class="sequence" x1="18.24em" y1="12em" x2="18.75em" y2="12em"/>
<line class="sequence" x1="18.78em" y1="12em" x2="19.74em" y2="12em"/>
<line class="sequence" x1="20.34em" y1="12em" x2="20.76em" y2="12em"/>
<line class="sequence" x1="20.97em" y1="12em" x2="21.42em" y2="12em"/>
<line class="sequence" x1="22.5em" y1="12em" x2="22.68em" y2="12em"/>
<text class="species" x="0.2em" y="13.9em">DroWil</text>
<line class="gap" x1="6em" y1="13.5em" x2="22.71em" y2="13.5em"/>
<line class="sequence" x1="6.42em" y1="13.5em" x2="6.96em" y2="13.5em"/>
<line class="sequence" x1="7.2em" y1="13.5em" x2="7.5em" y2="13.5em"/>
<line class="sequence" x1="12.15em" y1="13.5em" x2="12.75em" y2="13.5em"/>
<line class="sequence" x1="12.84em" y1="13.5em" x2="12.9em" y2="13.5em"/>
<line class="sequence" x1="13.11em" y1="13.5em" x2="14.43em" y2="13.5em"/>
<line class="sequence" x1="14.82em" y1="13.5em" x2="15.09em" y2="13.5em"/>
<line class="sequence" x1="15.24em" y1="13.5em" x2="15.54em" y2="13.5em"/>
<line class="sequence" x1="15.6em" y1="13.5em" x2="16.11em" y2="13.5em"/>
<line class="sequence" x1="16.41em" y1="13.5em" x2="16.68em" y2="13.5em"/>
<line class="sequence" x1="17.04em" y1="13.5em" x2="17.25em" y2="13.5em"/>
<line class="sequence" x1="17.4em" y1="13.5em" x2="17.79em" y2="13.5em"/>
<line class="sequence" x1="18.36em" y1="13.5em" x2="18.75em" y2="13.5em"/>
<line class="sequence" x1="18.78em" y1="13.5em" x2="19.89em" y2="13.5em"/>
<line class="sequence" x1="20.49em" y1="13.5em" x2="20.76em" y2="13.5em"/>
<line class="sequence" x1="20.97em" y1="13.5em" x2="21.12em" y2="13.5em"/>
<line class="sequence" x1="21.63em" y1="13.5em" x2="21.87em" y2="13.5em"/>
<line class="sequence" x1="21.96em" y1="13.5em" x2="22.17em" y2="13.5em"/>
<line class="sequence" x1="22.41em" y1="13.5em" x2="22.68em" y2="13.5em"/>
<text class="species" x="0.2em" y="15.4em">DroVir</text>
<line class="gap" x1="6em" y1="15em" x2="22.71em" y2="15em"/>
<line class="sequence" x1="6em" y1="15em" x2="6.54em" y2="15em"/>
<line class="sequence" x1="6.57em" y1="15em" x2="6.99em" y2="15em"/>
<line class="sequence" x1="7.95em" y1="15em" x2="8.22em" y2="15em"/>
<line class="sequence" x1="10.56em" y1="15em" x2="10.74em" y2="15em"/>
<line class="sequence" x1="11.91em" y1="15em" x2="12.21em" y2="15em"/>
<line class="sequence" x1="12.39em" y1="15em" x2="12.96em" y2="15em"/>
<line class="sequence" x1="13.02em" y1="15em" x2="13.41em" y2="15em"/>
<line class="sequence" x1="13.53em" y1="15em" x2="13.83em" y2="15em"/>
<line class="sequence" x1="13.89em" y1="15em" x2="14.46em" y2="15em"/>
<line class="sequence" x1="14.64em" y1="15em" x2="14.73em" y2="15em"/>
<line class="sequence" x1="14.79em" y1="15em" x2="15em" y2="15em"/>
<line class="sequence" x1="15.15em" y1="15em" x2="15.54em" y2="15em"/>
<line class="sequence" x1="15.6em" y1="15em" x2="16.56em" y2="15em"/>
<line class="sequence" x1="16.77em" y1="15em" x2="16.89em" y2="15em"/>
<line class="sequence" x1="17.16em" y1="15em" x2="17.82em" y2="15em"/>
<line class="sequence" x1="18.6em" y1="15em" x2="19.29em" y2="15em"/>
<line class="sequence" x1="19.32em" y1="15em" x2="19.92em" y2="15em"/>
<line class="sequence" x1="20.13em" y1="15em" x2="20.28em" y2="15em"/>
<line class="sequence" x1="20.61em" y1="15em" x2="21em" y2="15em"/>
<text class="species" x="0.2em" y="16.9em">DroMoj</text>
<line class="gap" x1="6em" y1="16.5em" x2="22.71em" y2="16.5em"/>
<line class="sequence" x1="6.15em" y1="16.5em" x2="6.54em" y2="16.5em"/>
<line class="sequence" x1="6.57em" y1="16.5em" x2="6.99em" y2="16.5em"/>
<line class="sequence" x1="7.95em" y1="16.5em" x2="8.22em" y2="16.5em"/>
<line class="sequence" x1="10.56em" y1="16.5em" x2="10.74em" y2="16.5em"/>
<line class="sequence" x1="11.91em" y1="16.5em" x2="12.27em" y2="16.5em"/>
<line class="sequence" x1="12.39em" y1="16.5em" x2="13.41em" y2="16.5em"/>
<line class="sequence" x1="13.53em" y1="16.5em" x2="13.83em" y2="16.5em"/>
<line class="sequence" x1="13.89em" y1="16.5em" x2="14.46em" y2="16.5em"/>
<line class="sequence" x1="14.64em" y1="16.5em" x2="15em" y2="16.5em"/>
<line class="sequence" x1="15.15em" y1="16.5em" x2="15.54em" y2="16.5em"/>
<line class="sequence" x1="15.6em" y1="16.5em" x2="16.56em" y2="16.5em"/>
<line class="sequence" x1="16.77em" y1="16.5em" x2="16.89em" y2="16.5em"/>
<line class="sequence" x1="17.16em" y1="16.5em" x2="18.03em" y2="16.5em"/>
<line class="sequence" x1="18.45em" y1="16.5em" x2="19.29em" y2="16.5em"/>
<line class="sequence" x1="19.32em" y1="16.5em" x2="19.92em" y2="16.5em"/>
<line class="sequence" x1="20.13em" y1="16.5em" x2="20.22em" y2="16.5em"/>
<line class="sequence" x1="20.91em" y1="16.5em" x2="21em" y2="16.5em"/>
<text class="species" x="0.2em" y="18.4em">DroGri</text>
<line class="gap" x1="6em" y1="18em" x2="22.71em" y2="18em"/>
<line class="sequence" x1="6.15em" y1="18em" x2="6.27em" y2="18em"/>
<line class="sequence" x1="8.16em" y1="18em" x2="8.22em" y2="18em"/>
<line class="sequence" x1="10.56em" y1="18em" x2="10.74em" y2="18em"/>
<line class="sequence" x1="11.91em" y1="18em" x2="12.03em" y2="18em"/>
<line class="sequence" x1="12.54em" y1="18em" x2="13.41em" y2="18em"/>
<line class="sequence" x1="13.53em" y1="18em" x2="13.83em" y2="18em"/>
<line class="sequence" x1="13.89em" y1="18em" x2="14.46em" y2="18em"/>
<line class="sequence" x1="14.64em" y1="18em" x2="15.54em" y2="18em"/>
<line class="sequence" x1="15.6em" y1="18em" x2="16.56em" y2="18em"/>
<line class="sequence" x1="16.77em" y1="18em" x2="17.07em" y2="18em"/>
<line class="sequence" x1="17.13em" y1="18em" x2="18.24em" y2="18em"/>
<line class="sequence" x1="18.45em" y1="18em" x2="19.29em" y2="18em"/>
<line class="sequence" x1="19.32em" y1="18em" x2="19.92em" y2="18em"/>
<line class="sequence" x1="20.13em" y1="18em" x2="21.36em" y2="18em"/>
<line class="sequence" x1="21.51em" y1="18em" x2="22.68em" y2="18em"/>
<line class="conserved mot1" x1="10.98em" y1="1em" x2="10.98em" y2="2em"/>
<text x="11.18em" y="2.3em"><tspan class="score">10.5</tspan></text>
<line class="conserved mot1" x1="19.5em" y1="1.0em" x2="19.5em" y2="2.0em"/>
<text x="19.7em" y="2.3em"><tspan class="score">11.4</tspan></text>
<line class="conserved mot1" x1="11.0em" y1="2.5em" x2="11.0em" y2="3.5em"/>
<text x="11.2em" y="3.8em"><tspan class="score">10.5</tspan></text>
<line class="conserved mot1" x1="11.0em" y1="4.0em" x2="11.0em" y2="5.0em"/>
<text x="11.2em" y="5.3em"><tspan class="score">10.5</tspan></text>
<line class="conserved mot1" x1="11.0em" y1="7.0em" x2="11.0em" y2="8.0em"/>
<text x="11.2em" y="8.3em"><tspan class="score">10.5</tspan></text>
<line class="conserved mot1" x1="10.2em" y1="8.5em" x2="10.2em" y2="9.5em"/>
<text x="10.4em" y="9.8em"><tspan class="score">12.2</tspan></text>
<line class="conserved mot1" x1="15.7em" y1="8.5em" x2="15.7em" y2="9.5em"/>
<text x="15.9em" y="9.8em"><tspan class="score">10.5</tspan></text>
<line class="conserved mot1" x1="19.6em" y1="8.5em" x2="19.6em" y2="9.5em"/>
<text x="19.8em" y="9.8em"><tspan class="score">10.4</tspan></text>
<line class="conserved mot1" x1="10.6em" y1="10.0em" x2="10.6em" y2="11.0em"/>
<text x="10.8em" y="11.3em"><tspan class="score">10.8</tspan></text>
<line class="conserved mot1" x1="11.8em" y1="10.0em" x2="11.8em" y2="11.0em"/>
<text x="12.0em" y="11.3em"><tspan class="score">12.2</tspan></text>
<line class="conserved mot1" x1="10.6em" y1="11.5em" x2="10.6em" y2="12.5em"/>
<text x="10.8em" y="12.8em"><tspan class="score">10.8</tspan></text>
<line class="conserved mot1" x1="11.8em" y1="11.5em" x2="11.8em" y2="12.5em"/>
<text x="12.0em" y="12.8em"><tspan class="score">12.2</tspan></text>
<line class="conserved mot1" x1="19.6em" y1="13.0em" x2="19.6em" y2="14.0em"/>
<text x="19.8em" y="14.3em"><tspan class="score">15.6</tspan></text>
<line class="conserved mot1" x1="19.6em" y1="14.5em" x2="19.6em" y2="15.5em"/>
<text x="19.8em" y="15.8em"><tspan class="score">14.4</tspan></text>
<line class="conserved mot1" x1="19.6em" y1="16.0em" x2="19.6em" y2="17.0em"/>
<text x="19.8em" y="17.3em"><tspan class="score">13.1</tspan></text>
<line class="conserved mot2" x1="16.3em" y1="1.0em" x2="16.3em" y2="2.0em"/>
<text x="16.5em" y="2.3em"><tspan class="score">15.3</tspan></text>
<line class="conserved mot2" x1="16.3em" y1="2.5em" x2="16.3em" y2="3.5em"/>
<text x="16.5em" y="3.8em"><tspan class="score">15.3</tspan></text>
<line class="conserved mot2" x1="16.3em" y1="4.0em" x2="16.3em" y2="5.0em"/>
<text x="16.5em" y="5.3em"><tspan class="score">15.3</tspan></text>
<line class="conserved mot2" x1="16.3em" y1="5.5em" x2="16.3em" y2="6.5em"/>
<text x="16.5em" y="6.8em"><tspan class="score">15.3</tspan></text>
<line class="conserved mot2" x1="16.3em" y1="7.0em" x2="16.3em" y2="8.0em"/>
<text x="16.5em" y="8.3em"><tspan class="score">15.3</tspan></text>
<line class="notconserved mot2" x1="19.8em" y1="7.0em" x2="19.8em" y2="8.0em"/>
<text x="20.0em" y="8.3em"><tspan class="score">9.6</tspan></text>
<line class="conserved mot2" x1="16.3em" y1="8.5em" x2="16.3em" y2="9.5em"/>
<text x="16.5em" y="9.8em"><tspan class="score">10.1</tspan></text>
<line class="conserved mot2" x1="16.3em" y1="10.0em" x2="16.3em" y2="11.0em"/>
<text x="16.5em" y="11.3em"><tspan class="score">12.2</tspan></text>
<line class="conserved mot2" x1="16.3em" y1="11.5em" x2="16.3em" y2="12.5em"/>
<text x="16.5em" y="12.8em"><tspan class="score">12.2</tspan></text>
<line class="conserved mot2" x1="17.5em" y1="13.0em" x2="17.5em" y2="14.0em"/>
<text x="17.7em" y="14.3em"><tspan class="score">12.7</tspan></text>
<line class="conserved mot2" x1="16.3em" y1="14.5em" x2="16.3em" y2="15.5em"/>
<text x="16.5em" y="15.8em"><tspan class="score">13.0</tspan></text>
<line class="conserved mot2" x1="16.3em" y1="16.0em" x2="16.3em" y2="17.0em"/>
<text x="16.5em" y="17.3em"><tspan class="score">11.3</tspan></text>
<line class="conserved mot2" x1="16.3em" y1="17.5em" x2="16.3em" y2="18.5em"/>
<text x="16.5em" y="18.8em"><tspan class="score">11.3</tspan></text>
<line class="conserved mot3" x1="19.2em" y1="1.0em" x2="19.2em" y2="2.0em"/>
<text x="19.4em" y="2.3em"><tspan class="score">15.8</tspan></text>
<line class="conserved mot3" x1="19.2em" y1="2.5em" x2="19.2em" y2="3.5em"/>
<text x="19.4em" y="3.8em"><tspan class="score">15.8</tspan></text>
<line class="conserved mot3" x1="19.2em" y1="4.0em" x2="19.2em" y2="5.0em"/>
<text x="19.4em" y="5.3em"><tspan class="score">17.6</tspan></text>
<line class="conserved mot3" x1="19.2em" y1="5.5em" x2="19.2em" y2="6.5em"/>
<text x="19.4em" y="6.8em"><tspan class="score">15.8</tspan></text>
<line class="conserved mot3" x1="19.2em" y1="7.0em" x2="19.2em" y2="8.0em"/>
<text x="19.4em" y="8.3em"><tspan class="score">15.8</tspan></text>
<line class="conserved mot3" x1="18.4em" y1="8.5em" x2="18.4em" y2="9.5em"/>
<text x="18.6em" y="9.8em"><tspan class="score">10.0</tspan></text>
<line class="conserved mot3" x1="19.2em" y1="8.5em" x2="19.2em" y2="9.5em"/>
<text x="19.4em" y="9.8em"><tspan class="score">15.8</tspan></text>
<line class="conserved mot3" x1="19.2em" y1="10.0em" x2="19.2em" y2="11.0em"/>
<text x="19.4em" y="11.3em"><tspan class="score">13.0</tspan></text>
<line class="conserved mot3" x1="19.2em" y1="11.5em" x2="19.2em" y2="12.5em"/>
<text x="19.4em" y="12.8em"><tspan class="score">13.0</tspan></text>
<line class="conserved mot3" x1="19.2em" y1="13.0em" x2="19.2em" y2="14.0em"/>
<text x="19.4em" y="14.3em"><tspan class="score">15.8</tspan></text>
</g>
</svg>
