<?xml version="1.0" encoding="utf-8" standalone="no" ?>
<!DOCTYPE svg PUBLIC "-//W3C//DTD SVG 1.1//EN"
"http://www.w3.org/Graphics/SVG/1.1/DTD/svg11.dtd">

<svg xmlns="http://www.w3.org/2000/svg" width="100%" viewBox="0 0 816 240" version="1.1">

    <style type="text/css" >
      <![CDATA[

text {
   color:#222;
   background:#fff;
   font-family:"Helvetica Neue", Arial, Helvetica, sans-serif;
}
.sequence {
   stroke: black;
   stroke-width: 0.2em;
}

.gap {
   stroke: black;
   stroke-width: 0.05em;
}
.mot1 {
   stroke:  #FF0000;
}
.mot2 {
   stroke: #0000FF;
}
.mot3 {
   stroke: #007F7F;
}
.mot4 {
   stroke: #FFBFBF;
}
.mot5 {
   stroke: #BF7F3F;
}
.mot6 {
   stroke: #FF00FF;
}
.mot7 {
   stroke: #3F3F3F;
}
.mot8 {
   stroke: #7F007F;
}
.mot9 {
   stroke: #FF7F00;
}
.mot10 {
   stroke: #7F7F00;
}
.conserved {
   stroke-width: 0.3em;
}
.notconserved {
   stroke-width: 0.1em;
}
.score {
   font-size: 0.7em;
}

      ]]>
    </style>

<g font-size="12">
<text class="species" x="0.2em" y="1.9em">DroMel</text>
<line class="gap" x1="6em" y1="1.5em" x2="61.98em" y2="1.5em"/>
<line class="sequence" x1="6em" y1="1.5em" x2="7.5em" y2="1.5em"/>
<line class="sequence" x1="7.65em" y1="1.5em" x2="8.55em" y2="1.5em"/>
<line class="sequence" x1="8.82em" y1="1.5em" x2="9.15em" y2="1.5em"/>
<line class="sequence" x1="9.18em" y1="1.5em" x2="10.11em" y2="1.5em"/>
<line class="sequence" x1="10.14em" y1="1.5em" x2="10.56em" y2="1.5em"/>
<line class="sequence" x1="10.62em" y1="1.5em" x2="10.95em" y2="1.5em"/>
<line class="sequence" x1="11.07em" y1="1.5em" x2="12.9em" y2="1.5em"/>
<line class="sequence" x1="13.02em" y1="1.5em" x2="13.83em" y2="1.5em"/>
<line class="sequence" x1="14.31em" y1="1.5em" x2="18.12em" y2="1.5em"/>
<line class="sequence" x1="18.63em" y1="1.5em" x2="19.32em" y2="1.5em"/>
<line class="sequence" x1="19.35em" y1="1.5em" x2="20.34em" y2="1.5em"/>
<line class="sequence" x1="20.37em" y1="1.5em" x2="20.73em" y2="1.5em"/>
<line class="sequence" x1="20.97em" y1="1.5em" x2="21.09em" y2="1.5em"/>
<line class="sequence" x1="21.45em" y1="1.5em" x2="21.69em" y2="1.5em"/>
<line class="sequence" x1="28.8em" y1="1.5em" x2="29.55em" y2="1.5em"/>
<line class="sequence" x1="30.18em" y1="1.5em" x2="30.42em" y2="1.5em"/>
<line class="sequence" x1="31.17em" y1="1.5em" x2="31.26em" y2="1.5em"/>
<line class="sequence" x1="31.35em" y1="1.5em" x2="31.59em" y2="1.5em"/>
<line class="sequence" x1="32.04em" y1="1.5em" x2="32.25em" y2="1.5em"/>
<line class="sequence" x1="32.28em" y1="1.5em" x2="32.34em" y2="1.5em"/>
<line class="sequence" x1="32.37em" y1="1.5em" x2="33.87em" y2="1.5em"/>
<line class="sequence" x1="33.93em" y1="1.5em" x2="35.04em" y2="1.5em"/>
<line class="sequence" x1="35.16em" y1="1.5em" x2="35.46em" y2="1.5em"/>
<line class="sequence" x1="36.21em" y1="1.5em" x2="36.78em" y2="1.5em"/>
<line class="sequence" x1="36.84em" y1="1.5em" x2="37.32em" y2="1.5em"/>
<line class="sequence" x1="37.56em" y1="1.5em" x2="37.86em" y2="1.5em"/>
<line class="sequence" x1="42.39em" y1="1.5em" x2="42.72em" y2="1.5em"/>
<line class="sequence" x1="42.75em" y1="1.5em" x2="42.96em" y2="1.5em"/>
<line class="sequence" x1="43.29em" y1="1.5em" x2="43.5em" y2="1.5em"/>
<line class="sequence" x1="43.53em" y1="1.5em" x2="44.04em" y2="1.5em"/>
<line class="sequence" x1="44.19em" y1="1.5em" x2="44.85em" y2="1.5em"/>
<line class="sequence" x1="45.18em" y1="1.5em" x2="45.63em" y2="1.5em"/>
<line class="sequence" x1="46.32em" y1="1.5em" x2="46.5em" y2="1.5em"/>
<line class="sequence" x1="47.43em" y1="1.5em" x2="47.85em" y2="1.5em"/>
<line class="sequence" x1="51.42em" y1="1.5em" x2="51.45em" y2="1.5em"/>
<line class="sequence" x1="51.48em" y1="1.5em" x2="51.57em" y2="1.5em"/>
<line class="sequence" x1="51.69em" y1="1.5em" x2="51.81em" y2="1.5em"/>
<line class="sequence" x1="54.48em" y1="1.5em" x2="54.6em" y2="1.5em"/>
<line class="sequence" x1="55.29em" y1="1.5em" x2="55.5em" y2="1.5em"/>
<line class="sequence" x1="61.62em" y1="1.5em" x2="61.86em" y2="1.5em"/>
<line class="sequence" x1="61.89em" y1="1.5em" x2="61.95em" y2="1.5em"/>
<text class="species" x="0.2em" y="3.4em">DroSim</text>
<line class="gap" x1="6em" y1="3em" x2="61.98em" y2="3em"/>
<line class="sequence" x1="6em" y1="3em" x2="7.5em" y2="3em"/>
<line class="sequence" x1="7.65em" y1="3em" x2="8.55em" y2="3em"/>
<line class="sequence" x1="8.82em" y1="3em" x2="9.15em" y2="3em"/>
<line class="sequence" x1="9.18em" y1="3em" x2="10.11em" y2="3em"/>
<line class="sequence" x1="10.14em" y1="3em" x2="10.5em" y2="3em"/>
<line class="sequence" x1="10.62em" y1="3em" x2="10.95em" y2="3em"/>
<line class="sequence" x1="11.07em" y1="3em" x2="12.9em" y2="3em"/>
<line class="sequence" x1="13.02em" y1="3em" x2="13.17em" y2="3em"/>
<line class="sequence" x1="13.29em" y1="3em" x2="13.83em" y2="3em"/>
<line class="sequence" x1="14.31em" y1="3em" x2="16.71em" y2="3em"/>
<line class="sequence" x1="16.8em" y1="3em" x2="18.12em" y2="3em"/>
<line class="sequence" x1="18.63em" y1="3em" x2="19.32em" y2="3em"/>
<line class="sequence" x1="19.35em" y1="3em" x2="20.34em" y2="3em"/>
<line class="sequence" x1="20.37em" y1="3em" x2="20.73em" y2="3em"/>
<line class="sequence" x1="20.97em" y1="3em" x2="21.09em" y2="3em"/>
<line class="sequence" x1="21.45em" y1="3em" x2="21.69em" y2="3em"/>
<line class="sequence" x1="28.8em" y1="3em" x2="29.55em" y2="3em"/>
<line class="sequence" x1="30.18em" y1="3em" x2="30.42em" y2="3em"/>
<line class="sequence" x1="31.17em" y1="3em" x2="31.26em" y2="3em"/>
<line class="sequence" x1="31.35em" y1="3em" x2="31.59em" y2="3em"/>
<line class="sequence" x1="32.04em" y1="3em" x2="32.25em" y2="3em"/>
<line class="sequence" x1="32.28em" y1="3em" x2="32.34em" y2="3em"/>
<line class="sequence" x1="32.37em" y1="3em" x2="35.04em" y2="3em"/>
<line class="sequence" x1="35.16em" y1="3em" x2="35.46em" y2="3em"/>
<line class="sequence" x1="36.21em" y1="3em" x2="36.78em" y2="3em"/>
<line class="sequence" x1="36.84em" y1="3em" x2="37.32em" y2="3em"/>
<line class="sequence" x1="37.56em" y1="3em" x2="37.86em" y2="3em"/>
<line class="sequence" x1="42.39em" y1="3em" x2="42.72em" y2="3em"/>
<line class="sequence" x1="42.75em" y1="3em" x2="42.96em" y2="3em"/>
<line class="sequence" x1="43.29em" y1="3em" x2="43.5em" y2="3em"/>
<line class="sequence" x1="43.53em" y1="3em" x2="44.04em" y2="3em"/>
<line class="sequence" x1="44.19em" y1="3em" x2="44.85em" y2="3em"/>
<line class="sequence" x1="45.18em" y1="3em" x2="45.63em" y2="3em"/>
<line class="sequence" x1="46.32em" y1="3em" x2="46.5em" y2="3em"/>
<line class="sequence" x1="47.43em" y1="3em" x2="47.85em" y2="3em"/>
<line class="sequence" x1="51.42em" y1="3em" x2="51.57em" y2="3em"/>
<line class="sequence" x1="51.69em" y1="3em" x2="51.81em" y2="3em"/>
<line class="sequence" x1="54.48em" y1="3em" x2="54.6em" y2="3em"/>
<line class="sequence" x1="55.29em" y1="3em" x2="55.5em" y2="3em"/>
<line class="sequence" x1="61.62em" y1="3em" x2="61.95em" y2="3em"/>
<text class="species" x="0.2em" y="4.9em">DroSec</text>
<line class="gap" x1="6em" y1="4.5em" x2="61.98em" y2="4.5em"/>
<line class="sequence" x1="6em" y1="4.5em" x2="7.5em" y2="4.5em"/>
<line class="sequence" x1="7.65em" y1="4.5em" x2="8.55em" y2="4.5em"/>
<line class="sequence" x1="8.82em" y1="4.5em" x2="9.15em" y2="4.5em"/>
<line class="sequence" x1="9.18em" y1="4.5em" x2="10.11em" y2="4.5em"/>
<line class="sequence" x1="10.14em" y1="4.5em" x2="10.5em" y2="4.5em"/>
<line class="sequence" x1="10.62em" y1="4.5em" x2="10.95em" y2="4.5em"/>
<line class="sequence" x1="11.07em" y1="4.5em" x2="12.9em" y2="4.5em"/>
<line class="sequence" x1="13.02em" y1="4.5em" x2="13.83em" y2="4.5em"/>
<line class="sequence" x1="14.31em" y1="4.5em" x2="16.71em" y2="4.5em"/>
<line class="sequence" x1="16.8em" y1="4.5em" x2="17.34em" y2="4.5em"/>
<line class="sequence" x1="32.04em" y1="4.5em" x2="32.16em" y2="4.5em"/>
<line class="sequence" x1="34.56em" y1="4.5em" x2="35.04em" y2="4.5em"/>
<line class="sequence" x1="35.16em" y1="4.5em" x2="35.46em" y2="4.5em"/>
<line class="sequence" x1="36.21em" y1="4.5em" x2="36.78em" y2="4.5em"/>
<line class="sequence" x1="36.84em" y1="4.5em" x2="37.32em" y2="4.5em"/>
<line class="sequence" x1="37.56em" y1="4.5em" x2="37.86em" y2="4.5em"/>
<line class="sequence" x1="42.39em" y1="4.5em" x2="42.72em" y2="4.5em"/>
<line class="sequence" x1="42.75em" y1="4.5em" x2="42.96em" y2="4.5em"/>
<line class="sequence" x1="43.29em" y1="4.5em" x2="43.5em" y2="4.5em"/>
<line class="sequence" x1="43.53em" y1="4.5em" x2="44.04em" y2="4.5em"/>
<line class="sequence" x1="44.19em" y1="4.5em" x2="44.85em" y2="4.5em"/>
<line class="sequence" x1="45.18em" y1="4.5em" x2="45.63em" y2="4.5em"/>
<line class="sequence" x1="46.32em" y1="4.5em" x2="46.5em" y2="4.5em"/>
<line class="sequence" x1="47.43em" y1="4.5em" x2="47.85em" y2="4.5em"/>
<line class="sequence" x1="51.42em" y1="4.5em" x2="51.57em" y2="4.5em"/>
<line class="sequence" x1="51.69em" y1="4.5em" x2="51.81em" y2="4.5em"/>
<line class="sequence" x1="54.48em" y1="4.5em" x2="54.6em" y2="4.5em"/>
<line class="sequence" x1="55.29em" y1="4.5em" x2="55.5em" y2="4.5em"/>
<line class="sequence" x1="61.62em" y1="4.5em" x2="61.95em" y2="4.5em"/>
<text class="species" x="0.2em" y="6.4em">DroYak</text>
<line class="gap" x1="6em" y1="6em" x2="61.98em" y2="6em"/>
<line class="sequence" x1="6em" y1="6em" x2="7.5em" y2="6em"/>
<line class="sequence" x1="7.65em" y1="6em" x2="8.55em" y2="6em"/>
<line class="sequence" x1="8.82em" y1="6em" x2="9.15em" y2="6em"/>
<line class="sequence" x1="9.18em" y1="6em" x2="10.11em" y2="6em"/>
<line class="sequence" x1="10.14em" y1="6em" x2="10.71em" y2="6em"/>
<line class="sequence" x1="10.95em" y1="6em" x2="12.33em" y2="6em"/>
<line class="sequence" x1="12.36em" y1="6em" x2="12.39em" y2="6em"/>
<line class="sequence" x1="12.42em" y1="6em" x2="12.9em" y2="6em"/>
<line class="sequence" x1="13.02em" y1="6em" x2="14.79em" y2="6em"/>
<line class="sequence" x1="14.85em" y1="6em" x2="15em" y2="6em"/>
<line class="sequence" x1="15.15em" y1="6em" x2="16.71em" y2="6em"/>
<line class="sequence" x1="16.8em" y1="6em" x2="18.12em" y2="6em"/>
<line class="sequence" x1="18.63em" y1="6em" x2="18.99em" y2="6em"/>
<line class="sequence" x1="19.05em" y1="6em" x2="20.1em" y2="6em"/>
<line class="sequence" x1="20.22em" y1="6em" x2="20.34em" y2="6em"/>
<line class="sequence" x1="20.37em" y1="6em" x2="20.73em" y2="6em"/>
<line class="sequence" x1="20.82em" y1="6em" x2="21.09em" y2="6em"/>
<line class="sequence" x1="21.45em" y1="6em" x2="21.69em" y2="6em"/>
<line class="sequence" x1="21.78em" y1="6em" x2="21.93em" y2="6em"/>
<line class="sequence" x1="22.17em" y1="6em" x2="22.32em" y2="6em"/>
<line class="sequence" x1="28.71em" y1="6em" x2="29.55em" y2="6em"/>
<line class="sequence" x1="30.18em" y1="6em" x2="30.42em" y2="6em"/>
<line class="sequence" x1="31.17em" y1="6em" x2="31.26em" y2="6em"/>
<line class="sequence" x1="31.35em" y1="6em" x2="32.25em" y2="6em"/>
<line class="sequence" x1="32.28em" y1="6em" x2="32.34em" y2="6em"/>
<line class="sequence" x1="32.37em" y1="6em" x2="35.04em" y2="6em"/>
<line class="sequence" x1="35.16em" y1="6em" x2="35.46em" y2="6em"/>
<line class="sequence" x1="36.21em" y1="6em" x2="36.78em" y2="6em"/>
<line class="sequence" x1="36.84em" y1="6em" x2="37.32em" y2="6em"/>
<line class="sequence" x1="37.56em" y1="6em" x2="37.86em" y2="6em"/>
<line class="sequence" x1="42.39em" y1="6em" x2="42.72em" y2="6em"/>
<line class="sequence" x1="42.75em" y1="6em" x2="42.96em" y2="6em"/>
<line class="sequence" x1="43.29em" y1="6em" x2="43.5em" y2="6em"/>
<line class="sequence" x1="43.53em" y1="6em" x2="44.04em" y2="6em"/>
<line class="sequence" x1="44.19em" y1="6em" x2="44.85em" y2="6em"/>
<line class="sequence" x1="45.21em" y1="6em" x2="45.63em" y2="6em"/>
<line class="sequence" x1="46.32em" y1="6em" x2="46.65em" y2="6em"/>
<line class="sequence" x1="47.34em" y1="6em" x2="47.7em" y2="6em"/>
<line class="sequence" x1="47.76em" y1="6em" x2="47.79em" y2="6em"/>
<line class="sequence" x1="47.82em" y1="6em" x2="47.85em" y2="6em"/>
<line class="sequence" x1="51.42em" y1="6em" x2="51.57em" y2="6em"/>
<line class="sequence" x1="51.69em" y1="6em" x2="51.81em" y2="6em"/>
<line class="sequence" x1="54.48em" y1="6em" x2="54.6em" y2="6em"/>
<line class="sequence" x1="55.29em" y1="6em" x2="55.5em" y2="6em"/>
<line class="sequence" x1="57.03em" y1="6em" x2="57.99em" y2="6em"/>
<line class="sequence" x1="61.05em" y1="6em" x2="61.35em" y2="6em"/>
<line class="sequence" x1="61.5em" y1="6em" x2="61.95em" y2="6em"/>
<text class="species" x="0.2em" y="7.9em">DroEre</text>
<line class="gap" x1="6em" y1="7.5em" x2="61.98em" y2="7.5em"/>
<line class="sequence" x1="6em" y1="7.5em" x2="7.5em" y2="7.5em"/>
<line class="sequence" x1="7.65em" y1="7.5em" x2="8.55em" y2="7.5em"/>
<line class="sequence" x1="8.82em" y1="7.5em" x2="9.15em" y2="7.5em"/>
<line class="sequence" x1="9.18em" y1="7.5em" x2="10.11em" y2="7.5em"/>
<line class="sequence" x1="10.14em" y1="7.5em" x2="11.37em" y2="7.5em"/>
<line class="sequence" x1="11.4em" y1="7.5em" x2="12.33em" y2="7.5em"/>
<line class="sequence" x1="12.36em" y1="7.5em" x2="12.9em" y2="7.5em"/>
<line class="sequence" x1="13.02em" y1="7.5em" x2="14.04em" y2="7.5em"/>
<line class="sequence" x1="14.13em" y1="7.5em" x2="14.79em" y2="7.5em"/>
<line class="sequence" x1="14.85em" y1="7.5em" x2="15em" y2="7.5em"/>
<line class="sequence" x1="15.15em" y1="7.5em" x2="16.71em" y2="7.5em"/>
<line class="sequence" x1="16.8em" y1="7.5em" x2="17.67em" y2="7.5em"/>
<line class="sequence" x1="17.7em" y1="7.5em" x2="18.12em" y2="7.5em"/>
<line class="sequence" x1="18.63em" y1="7.5em" x2="18.99em" y2="7.5em"/>
<line class="sequence" x1="19.05em" y1="7.5em" x2="19.26em" y2="7.5em"/>
<line class="sequence" x1="19.29em" y1="7.5em" x2="19.89em" y2="7.5em"/>
<line class="sequence" x1="20.07em" y1="7.5em" x2="20.1em" y2="7.5em"/>
<line class="sequence" x1="20.22em" y1="7.5em" x2="20.34em" y2="7.5em"/>
<line class="sequence" x1="20.37em" y1="7.5em" x2="21.09em" y2="7.5em"/>
<line class="sequence" x1="21.45em" y1="7.5em" x2="21.69em" y2="7.5em"/>
<line class="sequence" x1="21.78em" y1="7.5em" x2="21.81em" y2="7.5em"/>
<line class="sequence" x1="29.4em" y1="7.5em" x2="29.55em" y2="7.5em"/>
<line class="sequence" x1="30.18em" y1="7.5em" x2="30.42em" y2="7.5em"/>
<line class="sequence" x1="31.17em" y1="7.5em" x2="31.26em" y2="7.5em"/>
<line class="sequence" x1="31.35em" y1="7.5em" x2="31.71em" y2="7.5em"/>
<line class="sequence" x1="31.74em" y1="7.5em" x2="32.25em" y2="7.5em"/>
<line class="sequence" x1="32.28em" y1="7.5em" x2="32.34em" y2="7.5em"/>
<line class="sequence" x1="32.37em" y1="7.5em" x2="32.94em" y2="7.5em"/>
<line class="sequence" x1="33em" y1="7.5em" x2="33.72em" y2="7.5em"/>
<line class="sequence" x1="34.41em" y1="7.5em" x2="35.04em" y2="7.5em"/>
<line class="sequence" x1="35.16em" y1="7.5em" x2="35.46em" y2="7.5em"/>
<line class="sequence" x1="36.21em" y1="7.5em" x2="36.78em" y2="7.5em"/>
<line class="sequence" x1="36.84em" y1="7.5em" x2="37.32em" y2="7.5em"/>
<line class="sequence" x1="37.56em" y1="7.5em" x2="37.86em" y2="7.5em"/>
<line class="sequence" x1="42.39em" y1="7.5em" x2="42.72em" y2="7.5em"/>
<line class="sequence" x1="42.75em" y1="7.5em" x2="42.96em" y2="7.5em"/>
<line class="sequence" x1="43.29em" y1="7.5em" x2="43.5em" y2="7.5em"/>
<line class="sequence" x1="43.53em" y1="7.5em" x2="44.04em" y2="7.5em"/>
<line class="sequence" x1="44.19em" y1="7.5em" x2="44.85em" y2="7.5em"/>
<line class="sequence" x1="45.18em" y1="7.5em" x2="45.63em" y2="7.5em"/>
<line class="sequence" x1="46.32em" y1="7.5em" x2="46.56em" y2="7.5em"/>
<line class="sequence" x1="47.49em" y1="7.5em" x2="47.7em" y2="7.5em"/>
<line class="sequence" x1="47.76em" y1="7.5em" x2="47.85em" y2="7.5em"/>
<line class="sequence" x1="51.42em" y1="7.5em" x2="51.57em" y2="7.5em"/>
<line class="sequence" x1="51.69em" y1="7.5em" x2="51.81em" y2="7.5em"/>
<line class="sequence" x1="54.48em" y1="7.5em" x2="54.6em" y2="7.5em"/>
<line class="sequence" x1="55.29em" y1="7.5em" x2="55.5em" y2="7.5em"/>
<line class="sequence" x1="57.03em" y1="7.5em" x2="57.99em" y2="7.5em"/>
<line class="sequence" x1="61.05em" y1="7.5em" x2="61.08em" y2="7.5em"/>
<line class="sequence" x1="61.29em" y1="7.5em" x2="61.35em" y2="7.5em"/>
<line class="sequence" x1="61.5em" y1="7.5em" x2="61.65em" y2="7.5em"/>
<line class="sequence" x1="61.83em" y1="7.5em" x2="61.95em" y2="7.5em"/>
<text class="species" x="0.2em" y="9.4em">DroAna</text>
<line class="gap" x1="6em" y1="9em" x2="61.98em" y2="9em"/>
<line class="sequence" x1="6em" y1="9em" x2="9.66em" y2="9em"/>
<line class="sequence" x1="9.75em" y1="9em" x2="10.5em" y2="9em"/>
<line class="sequence" x1="10.62em" y1="9em" x2="10.95em" y2="9em"/>
<line class="sequence" x1="11.28em" y1="9em" x2="11.73em" y2="9em"/>
<line class="sequence" x1="11.82em" y1="9em" x2="12.09em" y2="9em"/>
<line class="sequence" x1="12.21em" y1="9em" x2="12.51em" y2="9em"/>
<line class="sequence" x1="12.54em" y1="9em" x2="14.73em" y2="9em"/>
<line class="sequence" x1="14.79em" y1="9em" x2="14.94em" y2="9em"/>
<line class="sequence" x1="15.15em" y1="9em" x2="16.5em" y2="9em"/>
<line class="sequence" x1="16.74em" y1="9em" x2="17.37em" y2="9em"/>
<line class="sequence" x1="17.55em" y1="9em" x2="18.93em" y2="9em"/>
<line class="sequence" x1="19.23em" y1="9em" x2="20.58em" y2="9em"/>
<line class="sequence" x1="20.67em" y1="9em" x2="22.32em" y2="9em"/>
<line class="sequence" x1="28.71em" y1="9em" x2="29.91em" y2="9em"/>
<line class="sequence" x1="30.12em" y1="9em" x2="31.29em" y2="9em"/>
<line class="sequence" x1="31.35em" y1="9em" x2="31.77em" y2="9em"/>
<line class="sequence" x1="31.86em" y1="9em" x2="32.25em" y2="9em"/>
<line class="sequence" x1="32.28em" y1="9em" x2="32.79em" y2="9em"/>
<line class="sequence" x1="33.06em" y1="9em" x2="33.96em" y2="9em"/>
<line class="sequence" x1="34.14em" y1="9em" x2="35.64em" y2="9em"/>
<line class="sequence" x1="36.09em" y1="9em" x2="37.32em" y2="9em"/>
<line class="sequence" x1="37.56em" y1="9em" x2="38.04em" y2="9em"/>
<line class="sequence" x1="42.36em" y1="9em" x2="42.57em" y2="9em"/>
<line class="sequence" x1="42.6em" y1="9em" x2="42.72em" y2="9em"/>
<line class="sequence" x1="42.75em" y1="9em" x2="42.96em" y2="9em"/>
<line class="sequence" x1="43.29em" y1="9em" x2="43.32em" y2="9em"/>
<line class="sequence" x1="43.53em" y1="9em" x2="44.04em" y2="9em"/>
<line class="sequence" x1="44.19em" y1="9em" x2="44.85em" y2="9em"/>
<line class="sequence" x1="45.36em" y1="9em" x2="45.6em" y2="9em"/>
<line class="sequence" x1="46.56em" y1="9em" x2="46.65em" y2="9em"/>
<line class="sequence" x1="47.34em" y1="9em" x2="47.7em" y2="9em"/>
<line class="sequence" x1="47.73em" y1="9em" x2="47.85em" y2="9em"/>
<line class="sequence" x1="51.42em" y1="9em" x2="51.81em" y2="9em"/>
<line class="sequence" x1="54.48em" y1="9em" x2="54.6em" y2="9em"/>
<line class="sequence" x1="55.29em" y1="9em" x2="55.5em" y2="9em"/>
<line class="sequence" x1="57.03em" y1="9em" x2="57.3em" y2="9em"/>
<line class="sequence" x1="61.5em" y1="9em" x2="61.95em" y2="9em"/>
<text class="species" x="0.2em" y="10.9em">DroPse</text>
<line class="gap" x1="6em" y1="10.5em" x2="61.98em" y2="10.5em"/>
<line class="sequence" x1="16.95em" y1="10.5em" x2="17.19em" y2="10.5em"/>
<line class="sequence" x1="21.87em" y1="10.5em" x2="32.73em" y2="10.5em"/>
<line class="sequence" x1="32.85em" y1="10.5em" x2="33.72em" y2="10.5em"/>
<line class="sequence" x1="34.71em" y1="10.5em" x2="36.39em" y2="10.5em"/>
<line class="sequence" x1="36.75em" y1="10.5em" x2="57.39em" y2="10.5em"/>
<line class="sequence" x1="57.45em" y1="10.5em" x2="60.48em" y2="10.5em"/>
<line class="sequence" x1="60.78em" y1="10.5em" x2="61.95em" y2="10.5em"/>
<text class="species" x="0.2em" y="12.4em">DroPer</text>
<line class="gap" x1="6em" y1="12em" x2="61.98em" y2="12em"/>
<line class="sequence" x1="16.95em" y1="12em" x2="17.19em" y2="12em"/>
<line class="sequence" x1="21.87em" y1="12em" x2="29.28em" y2="12em"/>
<line class="sequence" x1="29.4em" y1="12em" x2="32.73em" y2="12em"/>
<line class="sequence" x1="32.85em" y1="12em" x2="33.72em" y2="12em"/>
<line class="sequence" x1="34.71em" y1="12em" x2="36.39em" y2="12em"/>
<line class="sequence" x1="36.75em" y1="12em" x2="57.39em" y2="12em"/>
<line class="sequence" x1="57.45em" y1="12em" x2="61.62em" y2="12em"/>
<line class="sequence" x1="61.92em" y1="12em" x2="61.95em" y2="12em"/>
<text class="species" x="0.2em" y="13.9em">DroWil</text>
<line class="gap" x1="6em" y1="13.5em" x2="61.98em" y2="13.5em"/>
<line class="sequence" x1="7.23em" y1="13.5em" x2="7.59em" y2="13.5em"/>
<line class="sequence" x1="19.92em" y1="13.5em" x2="20.22em" y2="13.5em"/>
<line class="sequence" x1="40.14em" y1="13.5em" x2="40.38em" y2="13.5em"/>
<line class="sequence" x1="42em" y1="13.5em" x2="42.63em" y2="13.5em"/>
<line class="sequence" x1="45.03em" y1="13.5em" x2="45.18em" y2="13.5em"/>
<line class="sequence" x1="46.56em" y1="13.5em" x2="47.07em" y2="13.5em"/>
<text class="species" x="0.2em" y="15.4em">DroMoj</text>
<line class="gap" x1="6em" y1="15em" x2="61.98em" y2="15em"/>
<line class="sequence" x1="15.87em" y1="15em" x2="15.93em" y2="15em"/>
<line class="sequence" x1="25.77em" y1="15em" x2="25.98em" y2="15em"/>
<line class="sequence" x1="29.43em" y1="15em" x2="30.21em" y2="15em"/>
<line class="sequence" x1="43.17em" y1="15em" x2="43.71em" y2="15em"/>
<text class="species" x="0.2em" y="16.9em">DroGri</text>
<line class="gap" x1="6em" y1="16.5em" x2="61.98em" y2="16.5em"/>
<line class="sequence" x1="15.72em" y1="16.5em" x2="15.93em" y2="16.5em"/>
<line class="sequence" x1="25.77em" y1="16.5em" x2="25.98em" y2="16.5em"/>
<line class="sequence" x1="29.43em" y1="16.5em" x2="30.15em" y2="16.5em"/>
<line class="sequence" x1="43.29em" y1="16.5em" x2="43.71em" y2="16.5em"/>
<line class="conserved mot1" x1="8.37em" y1="1em" x2="8.37em" y2="2em"/>
<text x="8.57em" y="2.3em"><tspan class="score">8.2</tspan></text>
<line class="conserved mot1" x1="16.3em" y1="1.0em" x2="16.3em" y2="2.0em"/>
<text x="16.5em" y="2.3em"><tspan class="score">8.1</tspan></text>
<line class="conserved mot1" x1="8.4em" y1="2.5em" x2="8.4em" y2="3.5em"/>
<text x="8.6em" y="3.8em"><tspan class="score">8.1</tspan></text>
<line class="conserved mot1" x1="9.4em" y1="2.5em" x2="9.4em" y2="3.5em"/>
<text x="9.6em" y="3.8em"><tspan class="score">8.9</tspan></text>
<line class="conserved mot1" x1="16.3em" y1="2.5em" x2="16.3em" y2="3.5em"/>
<text x="16.5em" y="3.8em"><tspan class="score">8.1</tspan></text>
<line class="conserved mot1" x1="8.4em" y1="4.0em" x2="8.4em" y2="5.0em"/>
<text x="8.6em" y="5.3em"><tspan class="score">8.1</tspan></text>
<line class="conserved mot1" x1="16.3em" y1="4.0em" x2="16.3em" y2="5.0em"/>
<text x="16.5em" y="5.3em"><tspan class="score">8.1</tspan></text>
<line class="conserved mot1" x1="9.4em" y1="5.5em" x2="9.4em" y2="6.5em"/>
<text x="9.6em" y="6.8em"><tspan class="score">8.9</tspan></text>
<line class="notconserved mot1" x1="57.2em" y1="5.5em" x2="57.2em" y2="6.5em"/>
<text x="57.4em" y="6.8em"><tspan class="score">7.7</tspan></text>
<line class="notconserved mot1" x1="8.4em" y1="7.0em" x2="8.4em" y2="8.0em"/>
<text x="8.6em" y="8.3em"><tspan class="score">7.5</tspan></text>
<line class="conserved mot1" x1="9.4em" y1="7.0em" x2="9.4em" y2="8.0em"/>
<text x="9.6em" y="8.3em"><tspan class="score">8.9</tspan></text>
<line class="conserved mot1" x1="12.6em" y1="7.0em" x2="12.6em" y2="8.0em"/>
<text x="12.8em" y="8.3em"><tspan class="score">8.0</tspan></text>
<line class="conserved mot1" x1="16.3em" y1="7.0em" x2="16.3em" y2="8.0em"/>
<text x="16.5em" y="8.3em"><tspan class="score">8.4</tspan></text>
<line class="conserved mot1" x1="57.2em" y1="7.0em" x2="57.2em" y2="8.0em"/>
<text x="57.4em" y="8.3em"><tspan class="score">10.8</tspan></text>
<line class="notconserved mot1" x1="7.6em" y1="8.5em" x2="7.6em" y2="9.5em"/>
<text x="7.8em" y="9.8em"><tspan class="score">7.3</tspan></text>
<line class="conserved mot1" x1="31.1em" y1="10.0em" x2="31.1em" y2="11.0em"/>
<text x="31.2em" y="11.3em"><tspan class="score">8.7</tspan></text>
<line class="conserved mot1" x1="41.8em" y1="10.0em" x2="41.8em" y2="11.0em"/>
<text x="42.0em" y="11.3em"><tspan class="score">11.1</tspan></text>
<line class="conserved mot1" x1="31.1em" y1="11.5em" x2="31.1em" y2="12.5em"/>
<text x="31.2em" y="12.8em"><tspan class="score">8.7</tspan></text>
<line class="conserved mot1" x1="41.8em" y1="11.5em" x2="41.8em" y2="12.5em"/>
<text x="42.0em" y="12.8em"><tspan class="score">11.1</tspan></text>
<line class="notconserved mot2" x1="14.9em" y1="2.5em" x2="14.9em" y2="3.5em"/>
<text x="15.1em" y="3.8em"><tspan class="score">7.5</tspan></text>
<line class="conserved mot2" x1="33.9em" y1="2.5em" x2="33.9em" y2="3.5em"/>
<text x="34.1em" y="3.8em"><tspan class="score">11.0</tspan></text>
<line class="notconserved mot2" x1="14.9em" y1="4.0em" x2="14.9em" y2="5.0em"/>
<text x="15.1em" y="5.3em"><tspan class="score">7.5</tspan></text>
<line class="notconserved mot2" x1="31.6em" y1="5.5em" x2="31.6em" y2="6.5em"/>
<text x="31.8em" y="6.8em"><tspan class="score">7.7</tspan></text>
<line class="notconserved mot2" x1="19.1em" y1="7.0em" x2="19.1em" y2="8.0em"/>
<text x="19.3em" y="8.3em"><tspan class="score">8.0</tspan></text>
<line class="notconserved mot2" x1="38.0em" y1="8.5em" x2="38.0em" y2="9.5em"/>
<text x="38.2em" y="9.8em"><tspan class="score">7.4</tspan></text>
<line class="notconserved mot2" x1="39.1em" y1="10.0em" x2="39.1em" y2="11.0em"/>
<text x="39.3em" y="11.3em"><tspan class="score">7.8</tspan></text>
<line class="conserved mot2" x1="55.4em" y1="10.0em" x2="55.4em" y2="11.0em"/>
<text x="55.6em" y="11.3em"><tspan class="score">8.2</tspan></text>
<line class="notconserved mot2" x1="56.5em" y1="10.0em" x2="56.5em" y2="11.0em"/>
<text x="56.7em" y="11.3em"><tspan class="score">7.2</tspan></text>
<line class="notconserved mot2" x1="61.5em" y1="10.0em" x2="61.5em" y2="11.0em"/>
<text x="61.7em" y="11.3em"><tspan class="score">7.7</tspan></text>
<line class="notconserved mot2" x1="39.1em" y1="11.5em" x2="39.1em" y2="12.5em"/>
<text x="39.3em" y="12.8em"><tspan class="score">7.8</tspan></text>
<line class="conserved mot2" x1="56.5em" y1="11.5em" x2="56.5em" y2="12.5em"/>
<text x="56.7em" y="12.8em"><tspan class="score">14.4</tspan></text>
<line class="conserved mot3" x1="10.1em" y1="1.0em" x2="10.1em" y2="2.0em"/>
<text x="10.3em" y="2.3em"><tspan class="score">8.2</tspan></text>
<line class="conserved mot3" x1="17.2em" y1="1.0em" x2="17.2em" y2="2.0em"/>
<text x="17.4em" y="2.3em"><tspan class="score">10.9</tspan></text>
<line class="conserved mot3" x1="34.2em" y1="1.0em" x2="34.2em" y2="2.0em"/>
<text x="34.4em" y="2.3em"><tspan class="score">8.4</tspan></text>
<line class="conserved mot3" x1="10.1em" y1="2.5em" x2="10.1em" y2="3.5em"/>
<text x="10.3em" y="3.8em"><tspan class="score">8.2</tspan></text>
<line class="conserved mot3" x1="34.2em" y1="2.5em" x2="34.2em" y2="3.5em"/>
<text x="34.4em" y="3.8em"><tspan class="score">8.4</tspan></text>
<line class="conserved mot3" x1="10.1em" y1="4.0em" x2="10.1em" y2="5.0em"/>
<text x="10.3em" y="5.3em"><tspan class="score">8.2</tspan></text>
<line class="conserved mot3" x1="10.1em" y1="5.5em" x2="10.1em" y2="6.5em"/>
<text x="10.3em" y="6.8em"><tspan class="score">8.2</tspan></text>
<line class="conserved mot3" x1="10.3em" y1="7.0em" x2="10.3em" y2="8.0em"/>
<text x="10.5em" y="8.3em"><tspan class="score">9.3</tspan></text>
<line class="conserved mot3" x1="46.1em" y1="10.0em" x2="46.1em" y2="11.0em"/>
<text x="46.3em" y="11.3em"><tspan class="score">13.0</tspan></text>
<line class="conserved mot3" x1="59.0em" y1="10.0em" x2="59.0em" y2="11.0em"/>
<text x="59.2em" y="11.3em"><tspan class="score">9.5</tspan></text>
<line class="notconserved mot3" x1="27.0em" y1="11.5em" x2="27.0em" y2="12.5em"/>
<text x="27.2em" y="12.8em"><tspan class="score">7.4</tspan></text>
<line class="conserved mot3" x1="46.1em" y1="11.5em" x2="46.1em" y2="12.5em"/>
<text x="46.3em" y="12.8em"><tspan class="score">13.0</tspan></text>
<line class="conserved mot3" x1="59.0em" y1="11.5em" x2="59.0em" y2="12.5em"/>
<text x="59.2em" y="12.8em"><tspan class="score">9.5</tspan></text>
<line class="conserved mot3" x1="61.3em" y1="11.5em" x2="61.3em" y2="12.5em"/>
<text x="61.5em" y="12.8em"><tspan class="score">14.7</tspan></text>
<line class="conserved mot4" x1="16.6em" y1="2.5em" x2="16.6em" y2="3.5em"/>
<text x="16.8em" y="3.8em"><tspan class="score">10.3</tspan></text>
<line class="conserved mot4" x1="16.6em" y1="4.0em" x2="16.6em" y2="5.0em"/>
<text x="16.8em" y="5.3em"><tspan class="score">10.3</tspan></text>
<line class="conserved mot4" x1="16.6em" y1="5.5em" x2="16.6em" y2="6.5em"/>
<text x="16.8em" y="6.8em"><tspan class="score">10.3</tspan></text>
<line class="conserved mot4" x1="17.3em" y1="8.5em" x2="17.3em" y2="9.5em"/>
<text x="17.5em" y="9.8em"><tspan class="score">8.0</tspan></text>
<line class="conserved mot4" x1="31.5em" y1="10.0em" x2="31.5em" y2="11.0em"/>
<text x="31.7em" y="11.3em"><tspan class="score">8.1</tspan></text>
<line class="conserved mot4" x1="31.5em" y1="11.5em" x2="31.5em" y2="12.5em"/>
<text x="31.7em" y="12.8em"><tspan class="score">8.1</tspan></text>
<line class="conserved mot5" x1="21.0em" y1="1.0em" x2="21.0em" y2="2.0em"/>
<text x="21.2em" y="2.3em"><tspan class="score">8.5</tspan></text>
<line class="conserved mot5" x1="35.2em" y1="1.0em" x2="35.2em" y2="2.0em"/>
<text x="35.5em" y="2.3em"><tspan class="score">8.9</tspan></text>
<line class="conserved mot5" x1="21.0em" y1="2.5em" x2="21.0em" y2="3.5em"/>
<text x="21.2em" y="3.8em"><tspan class="score">8.5</tspan></text>
<line class="conserved mot5" x1="35.2em" y1="2.5em" x2="35.2em" y2="3.5em"/>
<text x="35.5em" y="3.8em"><tspan class="score">8.9</tspan></text>
<line class="conserved mot5" x1="35.2em" y1="4.0em" x2="35.2em" y2="5.0em"/>
<text x="35.5em" y="5.3em"><tspan class="score">8.9</tspan></text>
<line class="conserved mot6" x1="9.7em" y1="1.0em" x2="9.7em" y2="2.0em"/>
<text x="9.9em" y="2.3em"><tspan class="score">11.3</tspan></text>
<line class="conserved mot6" x1="9.7em" y1="2.5em" x2="9.7em" y2="3.5em"/>
<text x="9.9em" y="3.8em"><tspan class="score">11.3</tspan></text>
<line class="conserved mot6" x1="18.6em" y1="2.5em" x2="18.6em" y2="3.5em"/>
<text x="18.8em" y="3.8em"><tspan class="score">8.8</tspan></text>
<line class="conserved mot6" x1="9.7em" y1="4.0em" x2="9.7em" y2="5.0em"/>
<text x="9.9em" y="5.3em"><tspan class="score">11.3</tspan></text>
<line class="conserved mot6" x1="9.7em" y1="5.5em" x2="9.7em" y2="6.5em"/>
<text x="9.9em" y="6.8em"><tspan class="score">9.0</tspan></text>
<line class="conserved mot6" x1="60.4em" y1="10.0em" x2="60.4em" y2="11.0em"/>
<text x="60.6em" y="11.3em"><tspan class="score">9.9</tspan></text>
<line class="conserved mot6" x1="50.5em" y1="11.5em" x2="50.5em" y2="12.5em"/>
<text x="50.8em" y="12.8em"><tspan class="score">8.5</tspan></text>
<line class="conserved mot6" x1="55.4em" y1="11.5em" x2="55.4em" y2="12.5em"/>
<text x="55.6em" y="12.8em"><tspan class="score">8.3</tspan></text>
<line class="conserved mot6" x1="60.7em" y1="11.5em" x2="60.7em" y2="12.5em"/>
<text x="60.9em" y="12.8em"><tspan class="score">9.9</tspan></text>
<line class="conserved mot7" x1="9.1em" y1="1.0em" x2="9.1em" y2="2.0em"/>
<text x="9.3em" y="2.3em"><tspan class="score">9.7</tspan></text>
<line class="conserved mot7" x1="9.1em" y1="4.0em" x2="9.1em" y2="5.0em"/>
<text x="9.3em" y="5.3em"><tspan class="score">9.7</tspan></text>
<line class="conserved mot7" x1="34.7em" y1="4.0em" x2="34.7em" y2="5.0em"/>
<text x="34.9em" y="5.3em"><tspan class="score">9.2</tspan></text>
<line class="conserved mot7" x1="31.2em" y1="8.5em" x2="31.2em" y2="9.5em"/>
<text x="31.4em" y="9.8em"><tspan class="score">10.1</tspan></text>
<line class="conserved mot7" x1="45.4em" y1="8.5em" x2="45.4em" y2="9.5em"/>
<text x="45.6em" y="9.8em"><tspan class="score">10.9</tspan></text>
<line class="conserved mot7" x1="42.7em" y1="10.0em" x2="42.7em" y2="11.0em"/>
<text x="42.9em" y="11.3em"><tspan class="score">8.3</tspan></text>
<line class="conserved mot7" x1="47.5em" y1="10.0em" x2="47.5em" y2="11.0em"/>
<text x="47.7em" y="11.3em"><tspan class="score">8.2</tspan></text>
<line class="conserved mot7" x1="42.7em" y1="11.5em" x2="42.7em" y2="12.5em"/>
<text x="42.9em" y="12.8em"><tspan class="score">8.3</tspan></text>
<line class="conserved mot7" x1="47.5em" y1="11.5em" x2="47.5em" y2="12.5em"/>
<text x="47.7em" y="12.8em"><tspan class="score">8.2</tspan></text>
<line class="notconserved mot7" x1="42.5em" y1="13.0em" x2="42.5em" y2="14.0em"/>
<text x="42.7em" y="14.3em"><tspan class="score">7.8</tspan></text>
<line class="notconserved mot9" x1="35.2em" y1="8.5em" x2="35.2em" y2="9.5em"/>
<text x="35.4em" y="9.8em"><tspan class="score">7.8</tspan></text>
<line class="conserved mot10" x1="33.1em" y1="10.0em" x2="33.1em" y2="11.0em"/>
<text x="33.3em" y="11.3em"><tspan class="score">10.5</tspan></text>
<line class="notconserved mot10" x1="55.0em" y1="10.0em" x2="55.0em" y2="11.0em"/>
<text x="55.2em" y="11.3em"><tspan class="score">7.3</tspan></text>
<line class="conserved mot10" x1="33.1em" y1="11.5em" x2="33.1em" y2="12.5em"/>
<text x="33.3em" y="12.8em"><tspan class="score">10.5</tspan></text>
<line class="notconserved mot10" x1="55.0em" y1="11.5em" x2="55.0em" y2="12.5em"/>
<text x="55.2em" y="12.8em"><tspan class="score">7.3</tspan></text>
</g>
</svg>
