<?xml version="1.0" encoding="utf-8" standalone="no" ?>
<!DOCTYPE svg PUBLIC "-//W3C//DTD SVG 1.1//EN"
"http://www.w3.org/Graphics/SVG/1.1/DTD/svg11.dtd">

<svg xmlns="http://www.w3.org/2000/svg" width="100%" viewBox="0 0 816 204" version="1.1">

    <style type="text/css" >
      <![CDATA[

text {
   color:#222;
   background:#fff;
   font-family:"Helvetica Neue", Arial, Helvetica, sans-serif;
}
.sequence {
   stroke: black;
   stroke-width: 0.2em;
}

.gap {
   stroke: black;
   stroke-width: 0.05em;
}
.mot1 {
   stroke:  #FF0000;
}
.mot2 {
   stroke: #0000FF;
}
.mot3 {
   stroke: #007F7F;
}
.mot4 {
   stroke: #FFBFBF;
}
.mot5 {
   stroke: #BF7F3F;
}
.mot6 {
   stroke: #FF00FF;
}
.mot7 {
   stroke: #3F3F3F;
}
.mot8 {
   stroke: #7F007F;
}
.mot9 {
   stroke: #FF7F00;
}
.mot10 {
   stroke: #7F7F00;
}
.conserved {
   stroke-width: 0.3em;
}
.notconserved {
   stroke-width: 0.1em;
}
.score {
   font-size: 0.7em;
}

      ]]>
    </style>

<g font-size="12">
<text class="species" x="0.2em" y="1.9em">DroMel</text>
<line class="gap" x1="6em" y1="1.5em" x2="37.74em" y2="1.5em"/>
<line class="sequence" x1="6em" y1="1.5em" x2="6.18em" y2="1.5em"/>
<line class="sequence" x1="6.27em" y1="1.5em" x2="6.39em" y2="1.5em"/>
<line class="sequence" x1="6.84em" y1="1.5em" x2="7.2em" y2="1.5em"/>
<line class="sequence" x1="7.29em" y1="1.5em" x2="7.47em" y2="1.5em"/>
<line class="sequence" x1="7.83em" y1="1.5em" x2="8.55em" y2="1.5em"/>
<line class="sequence" x1="8.64em" y1="1.5em" x2="8.79em" y2="1.5em"/>
<line class="sequence" x1="9.15em" y1="1.5em" x2="10.89em" y2="1.5em"/>
<line class="sequence" x1="11.04em" y1="1.5em" x2="11.25em" y2="1.5em"/>
<line class="sequence" x1="11.28em" y1="1.5em" x2="11.49em" y2="1.5em"/>
<line class="sequence" x1="12.72em" y1="1.5em" x2="13.14em" y2="1.5em"/>
<line class="sequence" x1="13.5em" y1="1.5em" x2="13.86em" y2="1.5em"/>
<line class="sequence" x1="14.4em" y1="1.5em" x2="15.06em" y2="1.5em"/>
<line class="sequence" x1="15.15em" y1="1.5em" x2="15.24em" y2="1.5em"/>
<line class="sequence" x1="15.3em" y1="1.5em" x2="15.63em" y2="1.5em"/>
<line class="sequence" x1="15.75em" y1="1.5em" x2="16.65em" y2="1.5em"/>
<line class="sequence" x1="17.37em" y1="1.5em" x2="18.18em" y2="1.5em"/>
<line class="sequence" x1="18.21em" y1="1.5em" x2="18.27em" y2="1.5em"/>
<line class="sequence" x1="18.69em" y1="1.5em" x2="19.14em" y2="1.5em"/>
<line class="sequence" x1="19.17em" y1="1.5em" x2="19.71em" y2="1.5em"/>
<line class="sequence" x1="20.82em" y1="1.5em" x2="21.36em" y2="1.5em"/>
<line class="sequence" x1="21.42em" y1="1.5em" x2="21.78em" y2="1.5em"/>
<line class="sequence" x1="22.68em" y1="1.5em" x2="23.13em" y2="1.5em"/>
<line class="sequence" x1="23.28em" y1="1.5em" x2="23.55em" y2="1.5em"/>
<line class="sequence" x1="23.73em" y1="1.5em" x2="23.85em" y2="1.5em"/>
<line class="sequence" x1="36.39em" y1="1.5em" x2="36.84em" y2="1.5em"/>
<line class="sequence" x1="36.87em" y1="1.5em" x2="37.71em" y2="1.5em"/>
<text class="species" x="0.2em" y="3.4em">DroSim</text>
<line class="gap" x1="6em" y1="3em" x2="37.74em" y2="3em"/>
<line class="sequence" x1="6em" y1="3em" x2="6.18em" y2="3em"/>
<line class="sequence" x1="6.27em" y1="3em" x2="6.39em" y2="3em"/>
<line class="sequence" x1="6.84em" y1="3em" x2="7.2em" y2="3em"/>
<line class="sequence" x1="7.29em" y1="3em" x2="7.47em" y2="3em"/>
<line class="sequence" x1="7.83em" y1="3em" x2="8.55em" y2="3em"/>
<line class="sequence" x1="8.64em" y1="3em" x2="8.79em" y2="3em"/>
<line class="sequence" x1="9.15em" y1="3em" x2="10.89em" y2="3em"/>
<line class="sequence" x1="11.04em" y1="3em" x2="11.25em" y2="3em"/>
<line class="sequence" x1="11.28em" y1="3em" x2="11.43em" y2="3em"/>
<line class="sequence" x1="12.96em" y1="3em" x2="13.14em" y2="3em"/>
<line class="sequence" x1="13.5em" y1="3em" x2="13.86em" y2="3em"/>
<line class="sequence" x1="14.4em" y1="3em" x2="15.06em" y2="3em"/>
<line class="sequence" x1="15.15em" y1="3em" x2="15.24em" y2="3em"/>
<line class="sequence" x1="15.3em" y1="3em" x2="15.63em" y2="3em"/>
<line class="sequence" x1="15.75em" y1="3em" x2="16.65em" y2="3em"/>
<line class="sequence" x1="17.37em" y1="3em" x2="18.18em" y2="3em"/>
<line class="sequence" x1="18.21em" y1="3em" x2="18.27em" y2="3em"/>
<line class="sequence" x1="18.69em" y1="3em" x2="19.14em" y2="3em"/>
<line class="sequence" x1="19.17em" y1="3em" x2="19.71em" y2="3em"/>
<line class="sequence" x1="20.82em" y1="3em" x2="21.36em" y2="3em"/>
<line class="sequence" x1="21.42em" y1="3em" x2="21.78em" y2="3em"/>
<line class="sequence" x1="22.68em" y1="3em" x2="23.13em" y2="3em"/>
<line class="sequence" x1="23.28em" y1="3em" x2="23.55em" y2="3em"/>
<line class="sequence" x1="23.73em" y1="3em" x2="23.85em" y2="3em"/>
<line class="sequence" x1="36.39em" y1="3em" x2="36.84em" y2="3em"/>
<line class="sequence" x1="36.87em" y1="3em" x2="37.71em" y2="3em"/>
<text class="species" x="0.2em" y="4.9em">DroSec</text>
<line class="gap" x1="6em" y1="4.5em" x2="37.74em" y2="4.5em"/>
<line class="sequence" x1="23.85em" y1="4.5em" x2="36.84em" y2="4.5em"/>
<line class="sequence" x1="36.87em" y1="4.5em" x2="37.71em" y2="4.5em"/>
<text class="species" x="0.2em" y="6.4em">DroYak</text>
<line class="gap" x1="6em" y1="6em" x2="37.74em" y2="6em"/>
<line class="sequence" x1="6em" y1="6em" x2="6.18em" y2="6em"/>
<line class="sequence" x1="6.27em" y1="6em" x2="6.39em" y2="6em"/>
<line class="sequence" x1="6.84em" y1="6em" x2="7.2em" y2="6em"/>
<line class="sequence" x1="7.29em" y1="6em" x2="7.47em" y2="6em"/>
<line class="sequence" x1="7.83em" y1="6em" x2="8.55em" y2="6em"/>
<line class="sequence" x1="8.64em" y1="6em" x2="8.79em" y2="6em"/>
<line class="sequence" x1="9.15em" y1="6em" x2="10.89em" y2="6em"/>
<line class="sequence" x1="11.04em" y1="6em" x2="11.25em" y2="6em"/>
<line class="sequence" x1="11.28em" y1="6em" x2="11.49em" y2="6em"/>
<line class="sequence" x1="12.72em" y1="6em" x2="13.14em" y2="6em"/>
<line class="sequence" x1="13.5em" y1="6em" x2="13.86em" y2="6em"/>
<line class="sequence" x1="14.4em" y1="6em" x2="15.06em" y2="6em"/>
<line class="sequence" x1="15.15em" y1="6em" x2="15.24em" y2="6em"/>
<line class="sequence" x1="15.3em" y1="6em" x2="15.63em" y2="6em"/>
<line class="sequence" x1="15.75em" y1="6em" x2="16.65em" y2="6em"/>
<line class="sequence" x1="17.37em" y1="6em" x2="18.18em" y2="6em"/>
<line class="sequence" x1="18.21em" y1="6em" x2="18.27em" y2="6em"/>
<line class="sequence" x1="18.69em" y1="6em" x2="19.14em" y2="6em"/>
<line class="sequence" x1="19.17em" y1="6em" x2="19.71em" y2="6em"/>
<line class="sequence" x1="20.82em" y1="6em" x2="21.36em" y2="6em"/>
<line class="sequence" x1="21.42em" y1="6em" x2="21.78em" y2="6em"/>
<line class="sequence" x1="22.68em" y1="6em" x2="23.13em" y2="6em"/>
<line class="sequence" x1="23.28em" y1="6em" x2="23.55em" y2="6em"/>
<line class="sequence" x1="23.73em" y1="6em" x2="23.85em" y2="6em"/>
<line class="sequence" x1="36.39em" y1="6em" x2="36.84em" y2="6em"/>
<line class="sequence" x1="36.87em" y1="6em" x2="37.71em" y2="6em"/>
<text class="species" x="0.2em" y="7.9em">DroEre</text>
<line class="gap" x1="6em" y1="7.5em" x2="37.74em" y2="7.5em"/>
<line class="sequence" x1="6em" y1="7.5em" x2="6.18em" y2="7.5em"/>
<line class="sequence" x1="6.27em" y1="7.5em" x2="6.39em" y2="7.5em"/>
<line class="sequence" x1="6.84em" y1="7.5em" x2="7.2em" y2="7.5em"/>
<line class="sequence" x1="7.29em" y1="7.5em" x2="7.47em" y2="7.5em"/>
<line class="sequence" x1="7.83em" y1="7.5em" x2="8.55em" y2="7.5em"/>
<line class="sequence" x1="8.64em" y1="7.5em" x2="8.79em" y2="7.5em"/>
<line class="sequence" x1="9.15em" y1="7.5em" x2="10.89em" y2="7.5em"/>
<line class="sequence" x1="11.04em" y1="7.5em" x2="11.25em" y2="7.5em"/>
<line class="sequence" x1="11.28em" y1="7.5em" x2="11.49em" y2="7.5em"/>
<line class="sequence" x1="12.72em" y1="7.5em" x2="13.14em" y2="7.5em"/>
<line class="sequence" x1="13.5em" y1="7.5em" x2="13.86em" y2="7.5em"/>
<line class="sequence" x1="14.4em" y1="7.5em" x2="15.06em" y2="7.5em"/>
<line class="sequence" x1="15.15em" y1="7.5em" x2="15.24em" y2="7.5em"/>
<line class="sequence" x1="15.3em" y1="7.5em" x2="15.63em" y2="7.5em"/>
<line class="sequence" x1="15.75em" y1="7.5em" x2="16.65em" y2="7.5em"/>
<line class="sequence" x1="17.37em" y1="7.5em" x2="18.18em" y2="7.5em"/>
<line class="sequence" x1="18.21em" y1="7.5em" x2="18.27em" y2="7.5em"/>
<line class="sequence" x1="18.69em" y1="7.5em" x2="19.14em" y2="7.5em"/>
<line class="sequence" x1="19.17em" y1="7.5em" x2="19.71em" y2="7.5em"/>
<line class="sequence" x1="20.82em" y1="7.5em" x2="21.36em" y2="7.5em"/>
<line class="sequence" x1="21.42em" y1="7.5em" x2="21.78em" y2="7.5em"/>
<line class="sequence" x1="22.68em" y1="7.5em" x2="23.13em" y2="7.5em"/>
<line class="sequence" x1="23.28em" y1="7.5em" x2="23.55em" y2="7.5em"/>
<line class="sequence" x1="23.73em" y1="7.5em" x2="23.85em" y2="7.5em"/>
<line class="sequence" x1="36.39em" y1="7.5em" x2="36.84em" y2="7.5em"/>
<line class="sequence" x1="36.87em" y1="7.5em" x2="37.71em" y2="7.5em"/>
<text class="species" x="0.2em" y="9.4em">DroAna</text>
<line class="gap" x1="6em" y1="9em" x2="37.74em" y2="9em"/>
<line class="sequence" x1="6em" y1="9em" x2="6.18em" y2="9em"/>
<line class="sequence" x1="6.27em" y1="9em" x2="6.39em" y2="9em"/>
<line class="sequence" x1="6.84em" y1="9em" x2="6.87em" y2="9em"/>
<line class="sequence" x1="6.99em" y1="9em" x2="7.2em" y2="9em"/>
<line class="sequence" x1="7.29em" y1="9em" x2="7.47em" y2="9em"/>
<line class="sequence" x1="7.83em" y1="9em" x2="8.55em" y2="9em"/>
<line class="sequence" x1="8.64em" y1="9em" x2="8.79em" y2="9em"/>
<line class="sequence" x1="9.15em" y1="9em" x2="9.78em" y2="9em"/>
<line class="sequence" x1="9.96em" y1="9em" x2="10.29em" y2="9em"/>
<line class="sequence" x1="10.41em" y1="9em" x2="11.25em" y2="9em"/>
<line class="sequence" x1="11.28em" y1="9em" x2="11.61em" y2="9em"/>
<line class="sequence" x1="12.12em" y1="9em" x2="12.36em" y2="9em"/>
<line class="sequence" x1="12.57em" y1="9em" x2="12.84em" y2="9em"/>
<line class="sequence" x1="12.93em" y1="9em" x2="13.11em" y2="9em"/>
<line class="sequence" x1="13.5em" y1="9em" x2="13.86em" y2="9em"/>
<line class="sequence" x1="14.4em" y1="9em" x2="14.76em" y2="9em"/>
<line class="sequence" x1="15.21em" y1="9em" x2="15.24em" y2="9em"/>
<line class="sequence" x1="15.3em" y1="9em" x2="15.63em" y2="9em"/>
<line class="sequence" x1="15.75em" y1="9em" x2="16.65em" y2="9em"/>
<line class="sequence" x1="17.37em" y1="9em" x2="18.18em" y2="9em"/>
<line class="sequence" x1="18.21em" y1="9em" x2="18.27em" y2="9em"/>
<line class="sequence" x1="18.69em" y1="9em" x2="19.14em" y2="9em"/>
<line class="sequence" x1="19.17em" y1="9em" x2="19.71em" y2="9em"/>
<line class="sequence" x1="20.82em" y1="9em" x2="20.91em" y2="9em"/>
<line class="sequence" x1="21.09em" y1="9em" x2="21.36em" y2="9em"/>
<line class="sequence" x1="21.42em" y1="9em" x2="21.81em" y2="9em"/>
<line class="sequence" x1="22.62em" y1="9em" x2="23.55em" y2="9em"/>
<line class="sequence" x1="23.73em" y1="9em" x2="23.85em" y2="9em"/>
<line class="sequence" x1="36.39em" y1="9em" x2="36.84em" y2="9em"/>
<line class="sequence" x1="36.87em" y1="9em" x2="37.71em" y2="9em"/>
<text class="species" x="0.2em" y="10.9em">DroPse</text>
<line class="gap" x1="6em" y1="10.5em" x2="37.74em" y2="10.5em"/>
<line class="sequence" x1="6em" y1="10.5em" x2="6.06em" y2="10.5em"/>
<line class="sequence" x1="6.09em" y1="10.5em" x2="6.18em" y2="10.5em"/>
<line class="sequence" x1="6.27em" y1="10.5em" x2="6.45em" y2="10.5em"/>
<line class="sequence" x1="6.6em" y1="10.5em" x2="7.2em" y2="10.5em"/>
<line class="sequence" x1="7.29em" y1="10.5em" x2="8.55em" y2="10.5em"/>
<line class="sequence" x1="8.64em" y1="10.5em" x2="9.78em" y2="10.5em"/>
<line class="sequence" x1="10.35em" y1="10.5em" x2="10.77em" y2="10.5em"/>
<line class="sequence" x1="11.01em" y1="10.5em" x2="11.25em" y2="10.5em"/>
<line class="sequence" x1="11.28em" y1="10.5em" x2="11.61em" y2="10.5em"/>
<line class="sequence" x1="12.27em" y1="10.5em" x2="12.36em" y2="10.5em"/>
<line class="sequence" x1="12.57em" y1="10.5em" x2="13.86em" y2="10.5em"/>
<line class="sequence" x1="14.4em" y1="10.5em" x2="15.24em" y2="10.5em"/>
<line class="sequence" x1="15.3em" y1="10.5em" x2="15.63em" y2="10.5em"/>
<line class="sequence" x1="15.75em" y1="10.5em" x2="15.96em" y2="10.5em"/>
<line class="sequence" x1="15.99em" y1="10.5em" x2="16.65em" y2="10.5em"/>
<line class="sequence" x1="17.37em" y1="10.5em" x2="18.27em" y2="10.5em"/>
<line class="sequence" x1="18.69em" y1="10.5em" x2="19.14em" y2="10.5em"/>
<line class="sequence" x1="19.17em" y1="10.5em" x2="20.43em" y2="10.5em"/>
<line class="sequence" x1="20.49em" y1="10.5em" x2="23.55em" y2="10.5em"/>
<line class="sequence" x1="23.73em" y1="10.5em" x2="23.85em" y2="10.5em"/>
<line class="sequence" x1="36.39em" y1="10.5em" x2="36.78em" y2="10.5em"/>
<line class="sequence" x1="36.81em" y1="10.5em" x2="36.84em" y2="10.5em"/>
<line class="sequence" x1="36.87em" y1="10.5em" x2="37.71em" y2="10.5em"/>
<text class="species" x="0.2em" y="12.4em">DroPer</text>
<line class="gap" x1="6em" y1="12em" x2="37.74em" y2="12em"/>
<line class="sequence" x1="6em" y1="12em" x2="6.06em" y2="12em"/>
<line class="sequence" x1="6.09em" y1="12em" x2="6.18em" y2="12em"/>
<line class="sequence" x1="6.27em" y1="12em" x2="6.45em" y2="12em"/>
<line class="sequence" x1="6.6em" y1="12em" x2="7.2em" y2="12em"/>
<line class="sequence" x1="7.29em" y1="12em" x2="8.55em" y2="12em"/>
<line class="sequence" x1="8.64em" y1="12em" x2="9.78em" y2="12em"/>
<line class="sequence" x1="10.35em" y1="12em" x2="10.77em" y2="12em"/>
<line class="sequence" x1="11.01em" y1="12em" x2="11.25em" y2="12em"/>
<line class="sequence" x1="11.28em" y1="12em" x2="11.61em" y2="12em"/>
<line class="sequence" x1="12.27em" y1="12em" x2="12.36em" y2="12em"/>
<line class="sequence" x1="12.57em" y1="12em" x2="13.86em" y2="12em"/>
<line class="sequence" x1="14.4em" y1="12em" x2="15.24em" y2="12em"/>
<line class="sequence" x1="15.3em" y1="12em" x2="15.63em" y2="12em"/>
<line class="sequence" x1="15.75em" y1="12em" x2="16.65em" y2="12em"/>
<line class="sequence" x1="17.37em" y1="12em" x2="18.09em" y2="12em"/>
<line class="sequence" x1="18.12em" y1="12em" x2="18.27em" y2="12em"/>
<line class="sequence" x1="18.69em" y1="12em" x2="19.14em" y2="12em"/>
<line class="sequence" x1="19.17em" y1="12em" x2="20.43em" y2="12em"/>
<line class="sequence" x1="20.49em" y1="12em" x2="22.83em" y2="12em"/>
<line class="sequence" x1="23.19em" y1="12em" x2="23.55em" y2="12em"/>
<line class="sequence" x1="23.73em" y1="12em" x2="23.85em" y2="12em"/>
<line class="sequence" x1="36.39em" y1="12em" x2="36.78em" y2="12em"/>
<line class="sequence" x1="36.81em" y1="12em" x2="36.84em" y2="12em"/>
<line class="sequence" x1="36.87em" y1="12em" x2="37.71em" y2="12em"/>
<text class="species" x="0.2em" y="13.9em">DroGri</text>
<line class="gap" x1="6em" y1="13.5em" x2="37.74em" y2="13.5em"/>
<line class="sequence" x1="6em" y1="13.5em" x2="7.47em" y2="13.5em"/>
<line class="sequence" x1="7.77em" y1="13.5em" x2="9.03em" y2="13.5em"/>
<line class="sequence" x1="9.27em" y1="13.5em" x2="9.63em" y2="13.5em"/>
<line class="sequence" x1="10.86em" y1="13.5em" x2="12.96em" y2="13.5em"/>
<line class="sequence" x1="13.14em" y1="13.5em" x2="13.41em" y2="13.5em"/>
<line class="sequence" x1="13.5em" y1="13.5em" x2="14.85em" y2="13.5em"/>
<line class="sequence" x1="15.12em" y1="13.5em" x2="19.47em" y2="13.5em"/>
<line class="sequence" x1="19.92em" y1="13.5em" x2="20.67em" y2="13.5em"/>
<line class="sequence" x1="21.78em" y1="13.5em" x2="22.32em" y2="13.5em"/>
<line class="sequence" x1="23.1em" y1="13.5em" x2="23.76em" y2="13.5em"/>
<line class="sequence" x1="36.48em" y1="13.5em" x2="37.71em" y2="13.5em"/>
<line class="conserved mot1" x1="6.87em" y1="1em" x2="6.87em" y2="2em"/>
<text x="7.07em" y="2.3em"><tspan class="score">14.7</tspan></text>
<line class="conserved mot1" x1="7.9em" y1="1.0em" x2="7.9em" y2="2.0em"/>
<text x="8.1em" y="2.3em"><tspan class="score">14.0</tspan></text>
<line class="conserved mot1" x1="6.9em" y1="2.5em" x2="6.9em" y2="3.5em"/>
<text x="7.1em" y="3.8em"><tspan class="score">14.7</tspan></text>
<line class="conserved mot1" x1="7.9em" y1="2.5em" x2="7.9em" y2="3.5em"/>
<text x="8.1em" y="3.8em"><tspan class="score">14.0</tspan></text>
<line class="conserved mot1" x1="17.7em" y1="2.5em" x2="17.7em" y2="3.5em"/>
<text x="17.9em" y="3.8em"><tspan class="score">8.8</tspan></text>
<line class="conserved mot1" x1="22.8em" y1="2.5em" x2="22.8em" y2="3.5em"/>
<text x="23.0em" y="3.8em"><tspan class="score">11.9</tspan></text>
<line class="conserved mot1" x1="6.9em" y1="5.5em" x2="6.9em" y2="6.5em"/>
<text x="7.1em" y="6.8em"><tspan class="score">14.5</tspan></text>
<line class="conserved mot1" x1="7.9em" y1="5.5em" x2="7.9em" y2="6.5em"/>
<text x="8.1em" y="6.8em"><tspan class="score">13.4</tspan></text>
<line class="conserved mot1" x1="22.8em" y1="5.5em" x2="22.8em" y2="6.5em"/>
<text x="23.0em" y="6.8em"><tspan class="score">10.7</tspan></text>
<line class="conserved mot1" x1="6.9em" y1="7.0em" x2="6.9em" y2="8.0em"/>
<text x="7.1em" y="8.3em"><tspan class="score">14.7</tspan></text>
<line class="conserved mot1" x1="7.9em" y1="7.0em" x2="7.9em" y2="8.0em"/>
<text x="8.1em" y="8.3em"><tspan class="score">13.4</tspan></text>
<line class="conserved mot1" x1="17.7em" y1="7.0em" x2="17.7em" y2="8.0em"/>
<text x="17.9em" y="8.3em"><tspan class="score">8.8</tspan></text>
<line class="conserved mot1" x1="22.8em" y1="7.0em" x2="22.8em" y2="8.0em"/>
<text x="23.0em" y="8.3em"><tspan class="score">10.7</tspan></text>
<line class="conserved mot1" x1="6.3em" y1="8.5em" x2="6.3em" y2="9.5em"/>
<text x="6.5em" y="9.8em"><tspan class="score">9.9</tspan></text>
<line class="conserved mot1" x1="7.9em" y1="8.5em" x2="7.9em" y2="9.5em"/>
<text x="8.1em" y="9.8em"><tspan class="score">13.4</tspan></text>
<line class="conserved mot1" x1="6.9em" y1="10.0em" x2="6.9em" y2="11.0em"/>
<text x="7.1em" y="11.3em"><tspan class="score">12.4</tspan></text>
<line class="conserved mot1" x1="7.9em" y1="10.0em" x2="7.9em" y2="11.0em"/>
<text x="8.1em" y="11.3em"><tspan class="score">14.7</tspan></text>
<line class="notconserved mot1" x1="11.0em" y1="10.0em" x2="11.0em" y2="11.0em"/>
<text x="11.2em" y="11.3em"><tspan class="score">7.3</tspan></text>
<line class="conserved mot1" x1="12.6em" y1="10.0em" x2="12.6em" y2="11.0em"/>
<text x="12.8em" y="11.3em"><tspan class="score">12.2</tspan></text>
<line class="conserved mot1" x1="6.9em" y1="11.5em" x2="6.9em" y2="12.5em"/>
<text x="7.1em" y="12.8em"><tspan class="score">12.4</tspan></text>
<line class="conserved mot1" x1="7.9em" y1="11.5em" x2="7.9em" y2="12.5em"/>
<text x="8.1em" y="12.8em"><tspan class="score">14.7</tspan></text>
<line class="notconserved mot1" x1="11.0em" y1="11.5em" x2="11.0em" y2="12.5em"/>
<text x="11.2em" y="12.8em"><tspan class="score">7.3</tspan></text>
<line class="conserved mot1" x1="12.6em" y1="11.5em" x2="12.6em" y2="12.5em"/>
<text x="12.8em" y="12.8em"><tspan class="score">12.2</tspan></text>
<line class="conserved mot1" x1="7.9em" y1="13.0em" x2="7.9em" y2="14.0em"/>
<text x="8.1em" y="14.3em"><tspan class="score">13.6</tspan></text>
<line class="conserved mot1" x1="18.5em" y1="13.0em" x2="18.5em" y2="14.0em"/>
<text x="18.7em" y="14.3em"><tspan class="score">8.9</tspan></text>
<line class="conserved mot1" x1="19.4em" y1="13.0em" x2="19.4em" y2="14.0em"/>
<text x="19.6em" y="14.3em"><tspan class="score">10.0</tspan></text>
<line class="notconserved mot2" x1="9.9em" y1="5.5em" x2="9.9em" y2="6.5em"/>
<text x="10.1em" y="6.8em"><tspan class="score">7.8</tspan></text>
<line class="conserved mot2" x1="8.6em" y1="10.0em" x2="8.6em" y2="11.0em"/>
<text x="8.8em" y="11.3em"><tspan class="score">8.9</tspan></text>
<line class="notconserved mot3" x1="23.2em" y1="8.5em" x2="23.2em" y2="9.5em"/>
<text x="23.4em" y="9.8em"><tspan class="score">7.5</tspan></text>
<line class="notconserved mot3" x1="23.2em" y1="10.0em" x2="23.2em" y2="11.0em"/>
<text x="23.4em" y="11.3em"><tspan class="score">7.5</tspan></text>
<line class="notconserved mot3" x1="23.2em" y1="11.5em" x2="23.2em" y2="12.5em"/>
<text x="23.4em" y="12.8em"><tspan class="score">7.5</tspan></text>
<line class="conserved mot4" x1="21.2em" y1="2.5em" x2="21.2em" y2="3.5em"/>
<text x="21.4em" y="3.8em"><tspan class="score">9.1</tspan></text>
<line class="conserved mot5" x1="18.8em" y1="13.0em" x2="18.8em" y2="14.0em"/>
<text x="19.0em" y="14.3em"><tspan class="score">9.4</tspan></text>
<line class="conserved mot6" x1="8.5em" y1="11.5em" x2="8.5em" y2="12.5em"/>
<text x="8.7em" y="12.8em"><tspan class="score">12.0</tspan></text>
<line class="notconserved mot6" x1="15.6em" y1="13.0em" x2="15.6em" y2="14.0em"/>
<text x="15.8em" y="14.3em"><tspan class="score">7.6</tspan></text>
<line class="conserved mot6" x1="17.9em" y1="13.0em" x2="17.9em" y2="14.0em"/>
<text x="18.1em" y="14.3em"><tspan class="score">9.7</tspan></text>
<line class="conserved mot7" x1="16.4em" y1="8.5em" x2="16.4em" y2="9.5em"/>
<text x="16.6em" y="9.8em"><tspan class="score">8.9</tspan></text>
<line class="notconserved mot8" x1="20.2em" y1="10.0em" x2="20.2em" y2="11.0em"/>
<text x="20.4em" y="11.3em"><tspan class="score">7.3</tspan></text>
<line class="notconserved mot8" x1="20.2em" y1="11.5em" x2="20.2em" y2="12.5em"/>
<text x="20.4em" y="12.8em"><tspan class="score">7.3</tspan></text>
<line class="conserved mot8" x1="20.2em" y1="13.0em" x2="20.2em" y2="14.0em"/>
<text x="20.4em" y="14.3em"><tspan class="score">9.8</tspan></text>
<line class="notconserved mot9" x1="10.6em" y1="2.5em" x2="10.6em" y2="3.5em"/>
<text x="10.8em" y="3.8em"><tspan class="score">7.3</tspan></text>
<line class="conserved mot9" x1="17.7em" y1="5.5em" x2="17.7em" y2="6.5em"/>
<text x="17.9em" y="6.8em"><tspan class="score">17.8</tspan></text>
<line class="notconserved mot9" x1="11.6em" y1="8.5em" x2="11.6em" y2="9.5em"/>
<text x="11.8em" y="9.8em"><tspan class="score">7.3</tspan></text>
<line class="conserved mot9" x1="9.0em" y1="10.0em" x2="9.0em" y2="11.0em"/>
<text x="9.2em" y="11.3em"><tspan class="score">8.8</tspan></text>
<line class="conserved mot9" x1="9.0em" y1="11.5em" x2="9.0em" y2="12.5em"/>
<text x="9.2em" y="12.8em"><tspan class="score">8.8</tspan></text>
<line class="conserved mot9" x1="6.4em" y1="13.0em" x2="6.4em" y2="14.0em"/>
<text x="6.6em" y="14.3em"><tspan class="score">9.6</tspan></text>
<line class="conserved mot10" x1="20.7em" y1="10.0em" x2="20.7em" y2="11.0em"/>
<text x="20.9em" y="11.3em"><tspan class="score">8.1</tspan></text>
<line class="conserved mot10" x1="20.7em" y1="11.5em" x2="20.7em" y2="12.5em"/>
<text x="20.9em" y="12.8em"><tspan class="score">8.1</tspan></text>
</g>
</svg>
